<?xml version="1.0" encoding="UTF-8" standalone="no"?>
<svg
   width="540"
   height="380"
   viewBox="0 0 540 380"
   fill="none"
   version="1.1"
   id="svg216"
   sodipodi:docname="cerez-tespit.svg"
   inkscape:version="1.2.1 (9c6d41e, 2022-07-14)"
   xmlns:inkscape="http://www.inkscape.org/namespaces/inkscape"
   xmlns:sodipodi="http://sodipodi.sourceforge.net/DTD/sodipodi-0.dtd"
   xmlns="http://www.w3.org/2000/svg"
   xmlns:svg="http://www.w3.org/2000/svg">
  <sodipodi:namedview
     id="namedview218"
     pagecolor="#ffffff"
     bordercolor="#000000"
     borderopacity="0.25"
     inkscape:showpageshadow="2"
     inkscape:pageopacity="0.0"
     inkscape:pagecheckerboard="0"
     inkscape:deskcolor="#d1d1d1"
     showgrid="false"
     inkscape:zoom="0.62105263"
     inkscape:cx="277.75424"
     inkscape:cy="197.24576"
     inkscape:window-width="1440"
     inkscape:window-height="687"
     inkscape:window-x="0"
     inkscape:window-y="25"
     inkscape:window-maximized="0"
     inkscape:current-layer="svg216" />
  <path
     d="M414.488 309.996C414.488 309.996 410.092 294.096 396.73 292.943"
     stroke="#8D9DB5"
     stroke-width="2"
     stroke-linecap="round"
     stroke-linejoin="round"
     id="path6" />
  <path
     d="M410.806 278.08C409.709 278.838 408.463 278.971 407.475 278.43C388.373 267.92 372.26 248.305 372.002 227.126C371.737 205.361 398.743 200.794 408.487 234.518C415.82 259.897 414.074 271.307 412.758 275.399C412.415 276.482 411.73 277.424 410.806 278.084V278.08Z"
     fill="#D5DDE8"
     id="path16" />
  <path
     d="M409.575 278.712C409.575 278.712 401.796 225.67 379.434 213.583"
     stroke="#8D9DB5"
     stroke-width="2"
     stroke-linecap="round"
     stroke-linejoin="round"
     id="path18" />
  <path
     d="M373.113 230.394C378.001 232.597 395.458 240.75 402.092 248.054"
     stroke="#8D9DB5"
     stroke-width="2"
     stroke-linecap="round"
     stroke-linejoin="round"
     id="path20" />
  <path
     d="M407.376 234.263C408.074 241.738 408.772 254.758 405.672 258.839"
     stroke="#8D9DB5"
     stroke-width="2"
     stroke-linecap="round"
     stroke-linejoin="round"
     id="path22" />
  <path
     d="M406.712 266.946C406.712 266.946 389.503 261.046 381.766 254.785"
     stroke="#8D9DB5"
     stroke-width="2"
     stroke-linecap="round"
     stroke-linejoin="round"
     id="path24" />
  <path
     d="M398.895 287.542C399.294 284.605 398.841 282.119 397.884 281.989C396.927 281.859 395.827 284.135 395.429 287.072C395.03 290.008 395.483 292.494 396.44 292.624C397.398 292.754 398.497 290.479 398.895 287.542Z"
     fill="#D5DDE8"
     id="path26" />
  <path
     d="M396.41 292.603C396.978 291.915 395.747 289.961 393.66 288.239C391.573 286.518 389.421 285.681 388.853 286.369C388.285 287.058 389.516 289.012 391.603 290.733C393.69 292.455 395.842 293.292 396.41 292.603Z"
     fill="#D5DDE8"
     id="path28" />
  <path
     d="M401.955 291.571C404.558 290.207 406.302 288.401 405.85 287.539C405.398 286.676 402.921 287.083 400.318 288.447C397.715 289.812 395.972 291.617 396.424 292.479C396.876 293.342 399.353 292.935 401.955 291.571Z"
     fill="#D5DDE8"
     id="path30" />
  <path
     d="M392.906 296.342C395.273 295.044 396.843 293.356 396.413 292.571C395.983 291.787 393.715 292.203 391.348 293.501C388.981 294.799 387.411 296.487 387.841 297.272C388.272 298.056 390.539 297.64 392.906 296.342Z"
     fill="#D5DDE8"
     id="path32" />
  <path
     d="M400.504 301.582C401.312 301.213 401.053 298.909 399.925 296.435C398.797 293.961 397.226 292.255 396.418 292.624C395.609 292.993 395.868 295.297 396.996 297.771C398.125 300.245 399.695 301.951 400.504 301.582Z"
     fill="#D5DDE8"
     id="path34" />
  <path
     d="M91 306C91 302.686 93.6863 300 97 300H157C160.314 300 163 302.686 163 306V372H91V306Z"
     fill="#D5DDE8"
     id="path48" />
  <path
     d="M63 306C63 302.686 65.6863 300 69 300H129C132.314 300 135 302.686 135 306V372H63V306Z"
     fill="#E0EEF5"
     id="path50" />
  <rect
     opacity="0.32"
     x="69"
     y="306"
     width="17"
     height="6"
     rx="3"
     fill="#8D9DB5"
     id="rect52" />
  <rect
     opacity="0.32"
     x="69"
     y="318"
     width="54"
     height="6"
     rx="3"
     fill="#8D9DB5"
     id="rect54" />
  <rect
     opacity="0.32"
     x="69"
     y="327"
     width="18"
     height="6"
     rx="3"
     fill="#8D9DB5"
     id="rect56" />
  <path
     d="M91 300H111V328.159C111 329.777 109.179 330.725 107.853 329.797L102.147 325.803C101.458 325.321 100.542 325.321 99.8531 325.803L94.1469 329.797C92.8214 330.725 91 329.777 91 328.159V300Z"
     fill="#8D9DB5"
     id="path58" />
  <g
     filter="url(#filter0_d)"
     id="g68">
    <rect
       x="119"
       y="128"
       width="302"
       height="208"
       rx="8"
       fill="#639EC5"
       id="rect64" />
    <rect
       x="120"
       y="129"
       width="300"
       height="206"
       rx="7"
       stroke="#003566"
       stroke-width="2"
       id="rect66" />
  </g>
  <rect
     x="135"
     y="164"
     width="270"
     height="156"
     rx="4"
     fill="white"
     id="rect70" />
  <path
     d="M368.147 209.67C368.091 209.613 367.994 209.645 367.981 209.723C367.972 209.781 368.015 209.833 368.073 209.836C368.162 209.841 368.21 209.733 368.147 209.67Z"
     fill="#F2F4F8"
     id="path72" />
  <path
     d="M375.19 232.352C376.196 231.561 377.909 232.084 377.909 233.364C377.909 251.941 362.85 267 344.273 267C325.696 267 310.637 251.941 310.637 233.364C310.637 221.778 316.495 211.56 325.41 205.511C326.111 205.035 327.034 205.607 327.034 206.455C327.034 217.833 336.258 227.057 347.637 227.057C347.673 227.057 347.709 227.057 347.745 227.057C347.785 227.057 347.82 227.085 347.829 227.124C348.626 230.695 351.814 233.364 355.625 233.364C358.118 233.364 360.813 233.48 363.162 234.317C364.486 234.789 365.912 235.046 367.398 235.046C370.339 235.046 373.045 234.039 375.19 232.352Z"
     fill="#F2F4F8"
     id="path74" />
  <path
     d="M361.934 205.614C361.934 212.58 356.287 218.227 349.321 218.227C342.354 218.227 336.707 212.58 336.707 205.614C336.707 198.648 342.354 193 349.321 193C356.287 193 361.934 198.648 361.934 205.614Z"
     fill="#F2F4F8"
     id="path76" />
  <path
     d="M369.923 223.273C369.923 226.06 367.664 228.318 364.877 228.318C362.091 228.318 359.832 226.06 359.832 223.273C359.832 220.486 362.091 218.228 364.877 218.228C367.664 218.228 369.923 220.486 369.923 223.273Z"
     fill="#F2F4F8"
     id="path78" />
  <circle
     opacity="0.32"
     cx="324.514"
     cy="231.262"
     fill="#8D9DB5"
     id="circle80"
     r="5.04545" />
  <circle
     opacity="0.32"
     cx="335.444"
     cy="250.602"
     fill="#8D9DB5"
     id="circle82"
     r="5.04545" />
  <circle
     opacity="0.32"
     cx="354.784"
     cy="244.296"
     fill="#8D9DB5"
     id="circle84"
     r="5.04545" />
  <rect
     opacity="0.32"
     x="155"
     y="200"
     width="128"
     height="12"
     rx="6"
     fill="#8D9DB5"
     id="rect86" />
  <rect
     opacity="0.32"
     x="155"
     y="224"
     width="128"
     height="6"
     rx="3"
     fill="#8D9DB5"
     id="rect88" />
  <rect
     opacity="0.32"
     x="155"
     y="236"
     width="128"
     height="6"
     rx="3"
     fill="#8D9DB5"
     id="rect90" />
  <rect
     opacity="0.32"
     x="155"
     y="248"
     width="101"
     height="6"
     rx="3"
     fill="#8D9DB5"
     id="rect92" />
  <rect
     x="155"
     y="266"
     width="49"
     height="12"
     rx="4"
     fill="#FFC300"
     id="rect94" />
  <ellipse
     cx="135"
     cy="143.812"
     rx="4"
     ry="3.95294"
     fill="white"
     id="ellipse96" />
  <ellipse
     cx="151"
     cy="143.812"
     rx="4"
     ry="3.95294"
     fill="white"
     id="ellipse98" />
  <ellipse
     cx="167"
     cy="143.812"
     rx="4"
     ry="3.95294"
     fill="white"
     id="ellipse100" />
  <rect
     x="187"
     y="139.859"
     width="222"
     height="7.90588"
     rx="3.95294"
     fill="#EFF1F3"
     id="rect102" />
  <rect
     x="250"
     y="340"
     width="40"
     height="24"
     fill="#639EC5"
     id="rect104" />
  <path
     d="M210 372C210 367.582 213.582 364 218 364H322C326.418 364 330 367.582 330 372H210Z"
     fill="#003566"
     id="path106" />
  <circle
     opacity="0.32"
     cx="123"
     cy="360"
     fill="#8D9DB5"
     id="circle108"
     r="6" />
  <rect
     x="24"
     y="372"
     width="492"
     height="8"
     rx="4"
     fill="#D5DDE8"
     id="rect110" />
  <g
     filter="url(#filter1_d)"
     id="g119">
    <mask
       id="path-54-inside-1"
       fill="white">
      <path
         fill-rule="evenodd"
         clip-rule="evenodd"
         d="M306.001 80C301.583 80 298.001 83.5817 298.001 88L298.001 170L283.246 186.704C278.684 191.868 282.351 200 289.242 200H306.001H308.501H460.001C464.42 200 468.001 196.418 468.001 192V88C468.001 83.5817 464.42 80 460.001 80H306.001Z"
         id="path112" />
    </mask>
    <path
       fill-rule="evenodd"
       clip-rule="evenodd"
       d="M306.001 80C301.583 80 298.001 83.5817 298.001 88L298.001 170L283.246 186.704C278.684 191.868 282.351 200 289.242 200H306.001H308.501H460.001C464.42 200 468.001 196.418 468.001 192V88C468.001 83.5817 464.42 80 460.001 80H306.001Z"
       fill="white"
       id="path115" />
    <path
       d="M298.001 88H296.001H298.001ZM298.001 170L299.5 171.324L300.001 170.757V170H298.001ZM283.246 186.704L284.745 188.028H284.745L283.246 186.704ZM300.001 88C300.001 84.6863 302.688 82 306.001 82V78C300.478 78 296.001 82.4772 296.001 88H300.001ZM300.001 170L300.001 88H296.001L296.001 170H300.001ZM284.745 188.028L299.5 171.324L296.502 168.676L281.747 185.38L284.745 188.028ZM289.242 198C284.074 198 281.324 191.901 284.745 188.028L281.747 185.38C276.045 191.835 280.628 202 289.242 202V198ZM306.001 198H289.242V202H306.001V198ZM308.501 198H306.001V202H308.501V198ZM460.001 198H308.501V202H460.001V198ZM466.001 192C466.001 195.314 463.315 198 460.001 198V202C465.524 202 470.001 197.523 470.001 192H466.001ZM466.001 88V192H470.001V88H466.001ZM460.001 82C463.315 82 466.001 84.6863 466.001 88H470.001C470.001 82.4772 465.524 78 460.001 78V82ZM306.001 82H460.001V78H306.001V82Z"
       fill="#003566"
       mask="url(#path-54-inside-1)"
       id="path117" />
  </g>
  <rect
     opacity="0.32"
     x="352"
     y="136"
     width="94"
     height="9"
     rx="4.5"
     fill="#8D9DB5"
     id="rect121" />
  <rect
     opacity="0.32"
     x="352"
     y="164"
     width="94"
     height="9"
     rx="4.5"
     fill="#8D9DB5"
     id="rect123" />
  <rect
     opacity="0.32"
     x="352"
     y="108"
     width="94"
     height="9"
     rx="4.5"
     fill="#8D9DB5"
     id="rect125" />
  <path
     fill-rule="evenodd"
     clip-rule="evenodd"
     d="M332.004 102C326.484 102 322.004 106.48 322.004 112C322.004 117.52 326.484 122 332.004 122C337.524 122 342.004 117.52 342.004 112C342.004 106.48 337.524 102 332.004 102ZM330.006 117L325.006 112L326.416 110.59L330.006 114.17L337.596 106.58L339.006 108L330.006 117Z"
     fill="#59B989"
     id="path127" />
  <path
     fill-rule="evenodd"
     clip-rule="evenodd"
     d="M332.004 130C326.484 130 322.004 134.48 322.004 140C322.004 145.52 326.484 150 332.004 150C337.524 150 342.004 145.52 342.004 140C342.004 134.48 337.524 130 332.004 130ZM330.006 145L325.006 140L326.416 138.59L330.006 142.17L337.596 134.58L339.006 136L330.006 145Z"
     fill="#59B989"
     id="path129" />
  <path
     fill-rule="evenodd"
     clip-rule="evenodd"
     d="M332.004 158C326.484 158 322.004 162.48 322.004 168C322.004 173.52 326.484 178 332.004 178C337.524 178 342.004 173.52 342.004 168C342.004 162.48 337.524 158 332.004 158ZM330.006 173L325.006 168L326.416 166.59L330.006 170.17L337.596 162.58L339.006 164L330.006 173Z"
     fill="#59B989"
     id="path131" />
  <g
     filter="url(#filter2_d)"
     id="g137">
    <circle
       cx="225.5"
       cy="212.5"
       r="34.5"
       fill="white"
       id="circle133" />
    <circle
       cx="225.5"
       cy="212.5"
       r="33.5"
       stroke="#003566"
       stroke-width="2"
       id="circle135" />
  </g>
  <rect
     x="240.366"
     y="242.445"
     width="12.1574"
     height="57.997"
     rx="6.07868"
     transform="rotate(-30 240.366 242.445)"
     fill="white"
     stroke="#003566"
     stroke-width="2"
     id="rect139" />
  <g
     filter="url(#filter3_d)"
     id="g145">
    <rect
       x="247.105"
       y="260.783"
       width="19.1337"
       height="47.4926"
       rx="9.56686"
       transform="rotate(-30 247.105 260.783)"
       fill="#FFC300"
       id="rect141" />
    <rect
       x="248.471"
       y="261.149"
       width="17.1337"
       height="45.4926"
       rx="8.56686"
       transform="rotate(-30 248.471 261.149)"
       stroke="#003566"
       stroke-width="2"
       id="rect143" />
  </g>
  <mask
     id="mask0"
     mask-type="alpha"
     maskUnits="userSpaceOnUse"
     x="197"
     y="184"
     width="57"
     height="57">
    <circle
       cx="225.5"
       cy="212.5"
       r="28"
       fill="white"
       stroke="#003566"
       id="circle147" />
  </mask>
  <g
     mask="url(#mask0)"
     id="g154">
    <rect
       x="157"
       y="198"
       width="140"
       height="20"
       rx="10"
       fill="#DAE0E7"
       id="rect150" />
    <rect
       x="190"
       y="229"
       width="74"
       height="10"
       rx="5"
       fill="#DAE0E7"
       id="rect152" />
  </g>
  <path
     fill-rule="evenodd"
     clip-rule="evenodd"
     d="M247.097 193.903C242.106 189.601 235.607 187 228.5 187C212.76 187 200 199.76 200 215.5C200 222.607 202.601 229.106 206.903 234.097C200.839 228.871 197 221.134 197 212.5C197 196.76 209.76 184 225.5 184C234.134 184 241.871 187.839 247.097 193.903Z"
     fill="#003566"
     id="path156" />
  <path
     opacity="0.24"
     fill-rule="evenodd"
     clip-rule="evenodd"
     d="M251.432 200.66C247.996 193.147 241.392 187.387 233.329 185.089L197.847 205.574C197.294 207.791 197 210.111 197 212.5C197 218.665 198.957 224.372 202.284 229.035L251.432 200.66ZM253.058 205.204L205.409 232.714C207.067 234.362 208.927 235.808 210.949 237.01L253.998 212.156C253.97 209.756 253.644 207.427 253.058 205.204Z"
     fill="#FFC300"
     id="path158" />
  <circle
     cx="225.5"
     cy="212.5"
     stroke="#003566"
     stroke-width="2"
     id="circle160"
     r="27.5" />
  <defs
     id="defs214">
    <filter
       id="filter0_d"
       x="119"
       y="128"
       width="306"
       height="212"
       filterUnits="userSpaceOnUse"
       color-interpolation-filters="sRGB">
      <feFlood
         flood-opacity="0"
         result="BackgroundImageFix"
         id="feFlood162" />
      <feColorMatrix
         in="SourceAlpha"
         type="matrix"
         values="0 0 0 0 0 0 0 0 0 0 0 0 0 0 0 0 0 0 127 0"
         result="hardAlpha"
         id="feColorMatrix164" />
      <feOffset
         dx="4"
         dy="4"
         id="feOffset166" />
      <feColorMatrix
         type="matrix"
         values="0 0 0 0 0 0 0 0 0 0.207843 0 0 0 0 0.4 0 0 0 1 0"
         id="feColorMatrix168" />
      <feBlend
         mode="normal"
         in2="BackgroundImageFix"
         result="effect1_dropShadow"
         id="feBlend170" />
      <feBlend
         mode="normal"
         in="SourceGraphic"
         in2="effect1_dropShadow"
         result="shape"
         id="feBlend172" />
    </filter>
    <filter
       id="filter1_d"
       x="281.227"
       y="80"
       width="190.775"
       height="124"
       filterUnits="userSpaceOnUse"
       color-interpolation-filters="sRGB">
      <feFlood
         flood-opacity="0"
         result="BackgroundImageFix"
         id="feFlood175" />
      <feColorMatrix
         in="SourceAlpha"
         type="matrix"
         values="0 0 0 0 0 0 0 0 0 0 0 0 0 0 0 0 0 0 127 0"
         result="hardAlpha"
         id="feColorMatrix177" />
      <feOffset
         dx="4"
         dy="4"
         id="feOffset179" />
      <feColorMatrix
         type="matrix"
         values="0 0 0 0 0 0 0 0 0 0.207843 0 0 0 0 0.4 0 0 0 1 0"
         id="feColorMatrix181" />
      <feBlend
         mode="normal"
         in2="BackgroundImageFix"
         result="effect1_dropShadow"
         id="feBlend183" />
      <feBlend
         mode="normal"
         in="SourceGraphic"
         in2="effect1_dropShadow"
         result="shape"
         id="feBlend185" />
    </filter>
    <filter
       id="filter2_d"
       x="191"
       y="178"
       width="73"
       height="73"
       filterUnits="userSpaceOnUse"
       color-interpolation-filters="sRGB">
      <feFlood
         flood-opacity="0"
         result="BackgroundImageFix"
         id="feFlood188" />
      <feColorMatrix
         in="SourceAlpha"
         type="matrix"
         values="0 0 0 0 0 0 0 0 0 0 0 0 0 0 0 0 0 0 127 0"
         result="hardAlpha"
         id="feColorMatrix190" />
      <feOffset
         dx="4"
         dy="4"
         id="feOffset192" />
      <feColorMatrix
         type="matrix"
         values="0 0 0 0 0 0 0 0 0 0.207843 0 0 0 0 0.4 0 0 0 1 0"
         id="feColorMatrix194" />
      <feBlend
         mode="normal"
         in2="BackgroundImageFix"
         result="effect1_dropShadow"
         id="feBlend196" />
      <feBlend
         mode="normal"
         in="SourceGraphic"
         in2="effect1_dropShadow"
         result="shape"
         id="feBlend198" />
    </filter>
    <filter
       id="filter3_d"
       x="250.605"
       y="254.717"
       width="37.3164"
       height="47.6964"
       filterUnits="userSpaceOnUse"
       color-interpolation-filters="sRGB">
      <feFlood
         flood-opacity="0"
         result="BackgroundImageFix"
         id="feFlood201" />
      <feColorMatrix
         in="SourceAlpha"
         type="matrix"
         values="0 0 0 0 0 0 0 0 0 0 0 0 0 0 0 0 0 0 127 0"
         result="hardAlpha"
         id="feColorMatrix203" />
      <feOffset
         dx="4"
         dy="4"
         id="feOffset205" />
      <feColorMatrix
         type="matrix"
         values="0 0 0 0 0 0 0 0 0 0.207843 0 0 0 0 0.4 0 0 0 1 0"
         id="feColorMatrix207" />
      <feBlend
         mode="normal"
         in2="BackgroundImageFix"
         result="effect1_dropShadow"
         id="feBlend209" />
      <feBlend
         mode="normal"
         in="SourceGraphic"
         in2="effect1_dropShadow"
         result="shape"
         id="feBlend211" />
    </filter>
  </defs>
</svg>
