<?xml version="1.0" encoding="UTF-8" standalone="no"?>
<svg
   width="456"
   height="32"
   viewBox="0 0 456 32"
   version="1.1"
   id="svg3968"
   sodipodi:docname="logo_band_grey.svg"
   inkscape:version="1.2.1 (9c6d41e, 2022-07-14)"
   inkscape:export-filename="logo_band_grey.png"
   inkscape:export-xdpi="96"
   inkscape:export-ydpi="96"
   xmlns:inkscape="http://www.inkscape.org/namespaces/inkscape"
   xmlns:sodipodi="http://sodipodi.sourceforge.net/DTD/sodipodi-0.dtd"
   xmlns="http://www.w3.org/2000/svg"
   xmlns:svg="http://www.w3.org/2000/svg"
   xmlns:rdf="http://www.w3.org/1999/02/22-rdf-syntax-ns#"
   xmlns:cc="http://creativecommons.org/ns#"
   xmlns:dc="http://purl.org/dc/elements/1.1/">
  <sodipodi:namedview
     id="namedview3970"
     pagecolor="#ffffff"
     bordercolor="#000000"
     borderopacity="0.25"
     inkscape:showpageshadow="2"
     inkscape:pageopacity="0.0"
     inkscape:pagecheckerboard="0"
     inkscape:deskcolor="#d1d1d1"
     showgrid="false"
     inkscape:zoom="2.6513158"
     inkscape:cx="233.09181"
     inkscape:cy="20.555831"
     inkscape:window-width="1819"
     inkscape:window-height="815"
     inkscape:window-x="0"
     inkscape:window-y="25"
     inkscape:window-maximized="0"
     inkscape:current-layer="svg3968" />
  <title
     id="title3890">logo-band</title>
  <defs
     id="defs3897" />
  <g
     id="👉Method-View"
     stroke="none"
     stroke-width="1"
     fill="none"
     fill-rule="evenodd"
     style="fill:#575757;fill-opacity:0.476684">
    <g
       id="PWI_Method_02_FooterAlternatives"
       transform="translate(-1212,-932)"
       style="fill:#575757;fill-opacity:0.476684">
      <g
         id="logo-band-iyzico-copy-2"
         transform="translate(1212,932)"
         style="fill:#575757;fill-opacity:0.476684">
        <g
           id="Troy-Logo"
           transform="translate(397,3)"
           style="fill:#575757;fill-opacity:0.476684">
          <g
             id="Group_1_"
             transform="translate(1.437077,22.72434)"
             fill="#FFFFFF"
             style="fill:#575757;fill-opacity:0.476684">
            <path
               d="M 0.8,0.7 H 0.4 c 0,0 -0.1,0 -0.1,0.1 V 0.9 H 0.1 V 0.7 C 0.1,0.6 0.2,0.5 0.3,0.5 h 1.3 c 0.1,0 0.2,0 0.1,0.2 V 0.9 H 1.5 V 0.8 c 0,0 0,-0.1 0,-0.1 H 1 L 0.6,2.5 H 0.4 Z"
               id="Path_6_"
               style="fill:#575757;fill-opacity:0.476684" />
            <path
               d="m 1.8,1.3 c 0,0 -0.1,-0.1 0,0 L 1.6,1.2 V 1 H 1.8 C 1.9,1 2,1 1.9,1.2 L 1.8,1.9 C 1.8,2.1 1.8,2.3 2,2.3 2.3,2.3 2.6,2 2.6,1.7 L 2.7,1 H 3 L 2.7,2.2 c 0,0 0,0.1 0,0.1 H 2.8 V 2.5 H 2.7 C 2.6,2.5 2.5,2.4 2.6,2.3 V 2.2 c 0,-0.1 0,-0.1 0,-0.1 v 0 C 2.5,2.3 2.3,2.5 2,2.5 1.6,2.5 1.5,2.3 1.6,2 Z M 2.2,0.5 H 2.4 L 2.3,0.8 H 2.2 Z m 0.4,0 H 2.8 V 0.8 H 2.6 Z"
               id="Shape_5_"
               fill-rule="nonzero"
               style="fill:#575757;fill-opacity:0.476684" />
            <path
               d="m 3.4,1.3 c 0,0 0,-0.1 0,0 L 3.3,1.2 V 1 h 0.2 c 0.1,0 0.2,0 0.1,0.2 v 0.1 c 0,0.1 0,0.1 0,0.1 v 0 C 3.7,1.2 3.9,1 4.1,1 c 0,0 0.1,0 0.1,0 v 0.2 c 0,0 0,0 -0.1,0 -0.2,0 -0.4,0.2 -0.5,0.4 0,0.1 -0.1,0.2 -0.1,0.3 L 3.4,2.5 H 3.2 Z"
               id="Path_7_"
               style="fill:#575757;fill-opacity:0.476684" />
            <path
               d="m 4.5,0.8 c 0,-0.1 0,-0.1 0,0 L 4.3,0.7 V 0.5 h 0.2 c 0.1,0 0.2,0 0.1,0.2 L 4.5,1.6 h 0.1 c 0.1,0 0.1,0 0.2,-0.1 L 5.3,1 H 5.5 L 5,1.6 C 4.9,1.7 4.9,1.7 4.9,1.7 v 0 c 0,0 0,0 0.1,0.1 l 0.1,0.5 c 0,0 0,0.1 0.1,0.1 H 5.3 V 2.6 H 5.1 C 5,2.6 4.9,2.6 4.9,2.5 L 4.7,1.8 C 4.7,1.7 4.6,1.7 4.6,1.7 H 4.5 L 4.3,2.5 H 4.1 Z"
               id="Path_8_"
               style="fill:#575757;fill-opacity:0.476684" />
            <path
               d="m 6.1,1.3 c 0,0 0,-0.1 -0.1,-0.1 H 5.7 L 5.8,1 H 6.3 C 6.6,1 6.7,1 6.6,1.2 L 6,2.2 c 0,0 0,0.1 0.1,0.1 H 6.4 L 6.3,2.5 H 5.9 C 5.6,2.5 5.5,2.4 5.6,2.3 Z M 6.5,0.5 H 6.9 L 6.8,0.8 H 6.4 Z"
               id="Shape_6_"
               fill-rule="nonzero"
               style="fill:#575757;fill-opacity:0.476684" />
            <path
               d="M 6.2,2.9 C 6.3,2.9 6.4,2.8 6.5,2.7 L 6.6,2.5 6.4,1.3 c 0,0 0,-0.1 -0.1,-0.1 V 1.2 1 H 6.4 C 6.5,1 6.6,1 6.6,1.1 L 6.8,2 c 0,0.1 0,0.2 0,0.2 v 0 c 0,0 0,-0.1 0.1,-0.2 L 7.4,1.1 C 7.5,1 7.5,1 7.6,1 h 0.1 v 0.2 0 c 0,0 -0.1,0 -0.1,0.1 l -1,1.5 C 6.5,2.9 6.3,3 6.1,3 5.9,3 5.9,2.9 5.9,2.9 L 6,2.8 c 0,0 0,0.1 0.2,0.1"
               id="Path_9_"
               style="fill:#575757;fill-opacity:0.476684" />
            <path
               d="M 8.5,1 C 8.9,1 9.1,1.3 9,1.7 9,1.7 9,1.8 9,1.8 H 7.9 C 7.8,2.1 8,2.3 8.3,2.3 8.6,2.3 8.8,2.1 8.8,2.1 L 8.9,2.2 C 8.9,2.2 8.7,2.4 8.3,2.4 7.9,2.4 7.6,2.1 7.7,1.7 7.8,1.3 8.1,1 8.5,1 Z M 8.8,1.6 C 8.9,1.3 8.7,1.2 8.5,1.2 8.3,1.2 8,1.4 7.9,1.6 Z"
               id="Shape_7_"
               fill-rule="nonzero"
               style="fill:#575757;fill-opacity:0.476684" />
            <polygon
               id="Path_10_"
               points="9.5,0.5 9.7,0.5 9.5,1 9.3,1 "
               style="fill:#575757;fill-opacity:0.476684" />
            <path
               d="m 9.9,1.3 c 0,0 0,-0.1 0,0 L 9.8,1.2 V 1 H 10 c 0.1,0 0.2,0 0.1,0.2 v 0.1 c 0,0.1 0,0.1 0,0.1 v 0 C 10.2,1.3 10.4,1 10.7,1 c 0.4,0 0.4,0.2 0.4,0.5 L 11,2.2 c 0,0 0,0.1 0,0.1 h 0.1 v 0.2 h -0.2 c -0.1,0 -0.2,-0.1 -0.1,-0.2 l 0.1,-0.7 c 0,-0.2 0.1,-0.4 -0.2,-0.4 -0.2,0 -0.5,0.2 -0.6,0.4 0,0.1 0,0.1 -0.1,0.2 L 9.9,2.5 H 9.7 Z"
               id="Path_11_"
               style="fill:#575757;fill-opacity:0.476684" />
            <path
               d="m 11.9,1.3 c 0,0 0,-0.1 -0.1,-0.1 H 11.5 L 11.6,1 h 0.5 c 0.3,0 0.4,0 0.3,0.2 l -0.5,1 c 0,0 0,0.1 0.1,0.1 h 0.3 l -0.1,0.2 h -0.5 c -0.3,0 -0.4,-0.1 -0.3,-0.2 z m 0.4,-0.8 h 0.4 l -0.1,0.2 h -0.4 z"
               id="Shape_8_"
               fill-rule="nonzero"
               style="fill:#575757;fill-opacity:0.476684" />
            <path
               d="m 12.702923,1.3 c 0,0 0,-0.1 0,0 l -0.2,-0.1 V 1 h 0.2 c 0.1,0 0.2,0 0.1,0.2 v 0.1 c 0,0.1 0,0.1 0,0.1 v 0 c 0.1,-0.1 0.4,-0.4 0.7,-0.4 0.3,0 0.4,0.2 0.3,0.5 l -0.1,0.7 c 0,0 0,0.1 0,0.1 h 0.1 v 0.2 h -0.2 c -0.1,0 -0.2,-0.1 -0.1,-0.2 l 0.1,-0.7 c 0,-0.2 0.1,-0.4 -0.2,-0.4 -0.2,0 -0.5,0.2 -0.6,0.4 0,0.1 0,0.1 -0.1,0.2 l -0.2,0.7 h -0.1 z"
               id="Path_12_"
               style="fill:#575757;fill-opacity:0.476684" />
            <path
               d="m 15.8,0.5 c 0.6,0 0.9,0.4 0.8,1 -0.1,0.6 -0.7,1 -1.2,1 -0.6,0 -0.9,-0.4 -0.8,-1 0.1,-0.6 0.6,-1 1.2,-1 z m -0.5,1.8 c 0.4,0 0.9,-0.4 1,-0.8 0.1,-0.5 -0.2,-0.8 -0.6,-0.8 -0.4,0 -0.9,0.4 -1,0.8 -0.1,0.5 0.2,0.8 0.6,0.8 z m 0.3,-2.2 h 0.2 l -0.1,0.2 h -0.2 z m 0.4,0 h 0.2 l -0.1,0.2 h -0.2 z"
               id="Shape_9_"
               fill-rule="nonzero"
               style="fill:#575757;fill-opacity:0.476684" />
            <path
               d="m 17.5,1 c 0.3,0 0.4,0.3 0.4,0.3 v 0 c 0,0 0,0 0,-0.1 L 18,0.7 c 0,0 0,-0.1 0,-0.1 H 17.9 V 0.4 h 0.2 c 0.1,0 0.2,0 0.1,0.2 l -0.3,1.5 c 0,0 0,0.1 0,0.1 H 18 v 0.2 h -0.2 c -0.1,0 -0.2,-0.1 -0.1,-0.2 0,-0.1 0,-0.1 0,-0.1 v 0 c 0,0 -0.2,0.3 -0.5,0.3 -0.4,0 -0.5,-0.3 -0.4,-0.7 0,-0.4 0.3,-0.7 0.7,-0.7 m 0.3,0.8 c 0.1,-0.3 0,-0.6 -0.3,-0.6 -0.2,0 -0.5,0.2 -0.6,0.6 -0.1,0.3 0.1,0.6 0.3,0.6 0.2,-0.1 0.5,-0.2 0.6,-0.6"
               id="Shape_10_"
               fill-rule="nonzero"
               style="fill:#575757;fill-opacity:0.476684" />
            <path
               d="m 19.2,1 c 0.4,0 0.5,0.3 0.5,0.6 0,0 0,0.1 0,0.1 h -1.1 c -0.1,0.3 0.1,0.6 0.4,0.6 0.3,0 0.5,-0.2 0.5,-0.2 l 0.1,0.1 c 0,0 -0.3,0.2 -0.6,0.2 -0.4,0 -0.7,-0.3 -0.6,-0.7 0,-0.4 0.4,-0.7 0.8,-0.7 z m 0.2,0.6 c 0.1,-0.3 -0.1,-0.4 -0.3,-0.4 -0.2,0 -0.5,0.1 -0.6,0.4 z"
               id="Shape_11_"
               fill-rule="nonzero"
               style="fill:#575757;fill-opacity:0.476684" />
            <path
               d="m 20,1.3 c 0.1,0 0,-0.1 0,0 L 19.8,1.2 V 1 H 20 c 0.1,0 0.2,0 0.1,0.2 v 0.1 c 0,0.1 0,0.1 0,0.1 v 0 C 20.3,1.2 20.6,1 20.8,1 c 0.3,0 0.4,0.1 0.4,0.3 v 0 C 21.3,1.2 21.5,1 21.8,1 c 0.3,0 0.4,0.2 0.3,0.5 L 22,2.2 c 0,0 0,0.1 0,0.1 h 0.1 V 2.5 H 21.9 C 21.8,2.5 21.7,2.4 21.8,2.3 L 22,1.6 c 0.1,-0.2 0,-0.4 -0.2,-0.4 -0.2,0 -0.4,0.2 -0.5,0.4 0,0.1 -0.1,0.1 -0.1,0.2 l -0.1,0.7 h -0.2 l 0.2,-0.8 c 0,-0.2 0.1,-0.4 -0.2,-0.4 -0.2,0 -0.4,0.2 -0.5,0.4 0,0.1 -0.1,0.1 -0.1,0.2 L 20,2.5 h -0.2 z"
               id="Path_13_"
               style="fill:#575757;fill-opacity:0.476684" />
            <path
               d="m 23.3,1 c 0.4,0 0.5,0.3 0.5,0.6 0,0 0,0.1 0,0.1 h -1.1 c -0.1,0.3 0.1,0.6 0.4,0.6 0.3,0 0.5,-0.2 0.5,-0.2 l 0.1,0.1 c 0,0 -0.3,0.2 -0.6,0.2 -0.4,0 -0.7,-0.3 -0.6,-0.7 0,-0.4 0.4,-0.7 0.8,-0.7 z m 0.2,0.6 C 23.6,1.3 23.4,1.2 23.2,1.2 23,1.2 22.7,1.3 22.6,1.6 Z"
               id="Shape_12_"
               fill-rule="nonzero"
               style="fill:#575757;fill-opacity:0.476684" />
            <path
               d="M 25.2,1.6 24.9,0.7 c 0,-0.1 -0.1,-0.1 -0.1,-0.1 v 0 -0.2 h 0.1 c 0.1,0 0.2,0 0.2,0.2 l 0.2,0.5 c 0,0.1 0.1,0.2 0.1,0.2 v 0 c 0,0 0.1,-0.1 0.2,-0.2 L 26,0.7 c 0.1,-0.1 0.2,-0.2 0.3,-0.2 h 0.1 v 0.2 0 c -0.1,0 -0.1,0 -0.1,0.1 L 25.6,1.7 25.4,2.5 H 25 Z"
               id="Path_14_"
               style="fill:#575757;fill-opacity:0.476684" />
            <path
               d="m 26.9,1 c 0.4,0 0.7,0.3 0.6,0.7 C 27.4,2.1 27,2.4 26.6,2.4 26.2,2.4 25.9,2.1 26,1.7 26.1,1.4 26.5,1 26.9,1 Z m -0.3,1.3 c 0.3,0 0.6,-0.2 0.7,-0.6 0.1,-0.3 -0.1,-0.5 -0.4,-0.5 -0.3,0 -0.6,0.2 -0.7,0.5 -0.1,0.4 0.1,0.6 0.4,0.6 z m 0.1,-1.8 h 0.2 l -0.1,0.2 h -0.2 z m 0.4,0 h 0.2 v 0.2 h -0.2 z"
               id="Shape_13_"
               fill-rule="nonzero"
               style="fill:#575757;fill-opacity:0.476684" />
            <path
               d="m 27.9,1.3 c 0,0 0,-0.1 0,0 L 27.7,1.2 V 1 H 28 c 0.1,0 0.2,0 0.1,0.2 v 0.1 c 0,0.1 0,0.1 0,0.1 v 0 C 28.2,1.3 28.4,1 28.7,1 29,1 29.1,1.2 29,1.5 l -0.1,0.7 c 0,0 0,0.1 0.1,0.1 h 0.1 V 2.5 H 28.9 C 28.8,2.5 28.7,2.4 28.8,2.3 L 28.9,1.6 C 28.9,1.4 29,1.2 28.7,1.2 28.5,1.2 28.2,1.4 28.1,1.6 28,1.7 28,1.7 28,1.8 l -0.1,0.7 h -0.2 z"
               id="Path_15_"
               style="fill:#575757;fill-opacity:0.476684" />
            <path
               d="M 29.6,1.2 H 29.4 V 1 h 0.2 l 0.1,-0.4 h 0.2 L 29.8,1 h 0.4 v 0.2 h -0.4 l -0.2,0.7 c -0.1,0.3 0.1,0.4 0.2,0.4 0,0 0.1,0 0.1,0 v 0.2 c 0,0 0,0 -0.1,0 -0.2,0 -0.5,-0.1 -0.4,-0.5 z"
               id="Path_16_"
               style="fill:#575757;fill-opacity:0.476684" />
            <path
               d="m 31.1,1 c 0.4,0 0.5,0.3 0.5,0.6 0,0 0,0.1 0,0.1 h -1.1 c -0.1,0.3 0.1,0.6 0.4,0.6 0.3,0 0.5,-0.2 0.5,-0.2 l 0.1,0.1 c 0,0 -0.2,0.2 -0.6,0.2 -0.4,0 -0.7,-0.3 -0.6,-0.7 0,-0.4 0.4,-0.7 0.8,-0.7 z m 0.3,0.6 c 0.1,-0.3 -0.1,-0.4 -0.3,-0.4 -0.2,0 -0.5,0.1 -0.6,0.4 z"
               id="Shape_14_"
               fill-rule="nonzero"
               style="fill:#575757;fill-opacity:0.476684" />
            <path
               d="m 32,1.3 c 0,0 0,-0.1 0,0 L 31.8,1.2 V 1 H 32 c 0.1,0 0.2,0 0.1,0.2 v 0.1 c 0,0.1 0,0.1 0,0.1 v 0 C 32.3,1.2 32.5,1 32.7,1 33,1 33.1,1.1 33.1,1.3 v 0 C 33.2,1.2 33.5,1 33.7,1 34,1 34.1,1.2 34,1.6 l -0.1,0.7 c 0,0 0,0.1 0,0.1 H 34 v 0.2 h -0.2 c -0.1,0 -0.2,-0.1 -0.1,-0.2 l 0.1,-0.7 c 0.1,-0.2 0,-0.4 -0.2,-0.4 -0.2,0 -0.4,0.2 -0.5,0.4 0,0.1 -0.1,0.1 -0.1,0.2 l -0.1,0.7 h -0.2 l 0.2,-0.8 c 0,-0.2 0.1,-0.4 -0.2,-0.4 -0.2,0 -0.4,0.2 -0.5,0.4 0,0.1 0,0.1 -0.1,0.2 L 32,2.7 h -0.2 z"
               id="Path_17_"
               style="fill:#575757;fill-opacity:0.476684" />
            <path
               d="m 34.9,1.3 c 0,0 0,-0.1 -0.1,-0.1 H 34.5 L 34.6,1 h 0.5 c 0.3,0 0.4,0 0.3,0.2 l -0.5,1 c 0,0 0,0.1 0.1,0.1 h 0.3 l -0.1,0.2 h -0.5 c -0.3,0 -0.4,-0.1 -0.3,-0.2 z m 0.4,-0.8 h 0.4 l -0.1,0.2 h -0.4 z"
               id="Shape_15_"
               fill-rule="nonzero"
               style="fill:#575757;fill-opacity:0.476684" />
          </g>
          <g
             id="Group_2_"
             style="fill:#575757;fill-opacity:0.476684">
            <g
               id="Path_18_"
               fill="#FFFFFF"
               style="fill:#575757;fill-opacity:0.476684">
              <path
                 d="m 54,4.4 c -0.8,0 -1.7,0.5 -2.1,1.3 L 48.1,14.4 46.7,5.7 C 46.5,4.9 46,4.4 45.1,4.4 h -4.9 l 4.2,14.5 c 0.1,0.3 0.1,0.6 0,0.9 C 44.2,21 43.1,22 41.9,22 h -2.7 c -0.7,0 -1.1,0.4 -1.4,1.4 L 37.2,27 H 42 c 2.5,0 5.4,-1.2 7.4,-4.7 L 59,4.4 Z"
                 id="Path"
                 style="fill:#575757;fill-opacity:0.476684" />
              <path
                 d="M 6.8,0 C 8.2,0 8.9,0.6 8.7,2 L 8.3,4.3 h 3.3 L 10.9,8.4 H 7.5 l -0.9,5.1 c -0.3,1.8 1.4,2 2.5,2 0.2,0 0.4,0 0.5,0 L 8.8,20 c -0.2,0 -0.5,0.1 -1,0.1 -2.5,0 -7.2,-0.7 -6.3,-5.9 l 1,-5.8 H 0 L 0.7,4.3 H 3.1 L 3.9,0 Z"
                 id="path3924"
                 style="fill:#575757;fill-opacity:0.476684" />
              <g
                 id="Group"
                 transform="translate(24.190798,4.196481)"
                 style="fill:#575757;fill-opacity:0.476684">
                <path
                   d="M 10.4,0.3 9.5,5.1 c 1,0.5 1.8,1.6 1.8,2.8 0,1.6 -1.2,3 -2.8,3.2 l -0.8,4.8 c 0.1,0 0.3,0 0.5,0 4.4,0 8,-3.6 8,-8 C 16.1,4.4 13.7,1.3 10.4,0.3 Z"
                   id="path3926"
                   style="fill:#575757;fill-opacity:0.476684" />
                <path
                   d="M 6.6,10.8 C 5.6,10.3 4.8,9.2 4.8,8 4.8,6.4 6,5 7.6,4.8 L 8.5,0 C 8.4,0 8.2,0 8,0 3.6,0 0,3.6 0,8 c 0,3.6 2.4,6.6 5.7,7.6 z"
                   id="path3928"
                   style="fill:#575757;fill-opacity:0.476684" />
              </g>
              <path
                 d="m 13.5,4.4 h 2.8 c 1.4,0 2.1,0.6 1.9,2 L 17.9,8.1 C 19,6 21.2,4.2 23.6,4.2 c 0.3,0 0.6,0.1 0.6,0.1 l -0.9,5.2 c 0,0 -0.4,-0.1 -1.1,-0.1 -1.3,0 -3.4,0.4 -4.6,2.7 -0.3,0.6 -0.5,1.3 -0.6,2.1 L 16,20 h -5.3 z"
                 id="path3931"
                 style="fill:#575757;fill-opacity:0.476684" />
            </g>
            <path
               d="m 59,20.7 c 0,0.5 -0.2,0.9 -0.5,1.2 -0.3,0.3 -0.7,0.5 -1.2,0.5 -0.5,0 -0.9,-0.2 -1.2,-0.5 -0.3,-0.3 -0.5,-0.7 -0.5,-1.2 0,-0.5 0.2,-0.9 0.5,-1.2 0.3,-0.3 0.7,-0.5 1.2,-0.5 0.5,0 0.9,0.2 1.2,0.5 0.3,0.3 0.5,0.7 0.5,1.2 z m -0.3,0 c 0,-0.4 -0.1,-0.7 -0.4,-1 -0.3,-0.3 -0.6,-0.4 -1,-0.4 -0.4,0 -0.7,0.1 -1,0.4 -0.3,0.3 -0.4,0.6 -0.4,1 0,0.4 0.1,0.7 0.4,1 0.3,0.3 0.6,0.4 1,0.4 0.4,0 0.7,-0.1 1,-0.4 0.3,-0.3 0.4,-0.6 0.4,-1 z M 58,21.6 H 57.7 L 57.3,20.8 H 57 v 0.8 h -0.3 v -1.8 h 0.6 c 0.2,0 0.3,0.1 0.4,0.2 0.1,0.1 0.2,0.2 0.2,0.4 0,0.3 -0.1,0.4 -0.4,0.5 z m -0.3,-1.3 c 0,-0.1 0,-0.2 -0.1,-0.2 -0.1,0 -0.2,-0.1 -0.3,-0.1 H 57 v 0.6 h 0.3 c 0.1,0 0.2,0 0.3,-0.1 0,0 0.1,-0.1 0.1,-0.2 z"
               id="Shape_16_"
               fill="#323E48"
               fill-rule="nonzero"
               style="fill:#575757;fill-opacity:0.476684" />
          </g>
        </g>
        <g
           id="Amex"
           transform="translate(294,6)"
           fill="#FFFFFF"
           style="fill:#575757;fill-opacity:0.476684">
          <polygon
             id="Fill-2"
             points="42.968744,8.6705248e-15 41.85169,8.6705248e-15 40.734434,8.6705248e-15 40.734434,4.181858 40.734434,8.3640212 41.849758,8.3640212 42.968744,8.3640212 42.968744,4.1975181 "
             style="fill:#575757;fill-opacity:0.476684" />
          <path
             d="M 39.563403,2.7003511 C 39.563403,1.0991563 38.41625,0 36.576188,0 H 31.73691 v 8.3640212 h 2.234514 V 5.4365985 h 0.812393 l 2.545174,2.9274227 h 2.772144 L 37.328991,5.3410108 C 38.72691,5.0422486 39.563403,4.014783 39.563403,2.7003511 M 36.313322,3.5846386 H 33.971424 V 1.8997537 h 2.341898 c 0.669215,0 1.003772,0.3943499 1.003772,0.8483913 0,0.4660406 -0.334557,0.8364936 -1.003772,0.8364936"
             id="Fill-3"
             style="fill:#575757;fill-opacity:0.476684" />
          <path
             d="M 46.386084,4.2537013 V 4.0983205 c 0,-1.2425377 0.69301,-2.1387228 2.126825,-2.1387228 h 2.485279 V 5.0844495e-5 h -2.676454 c -2.760145,0 -4.170062,1.768371555505 -4.170062,4.098269655505 v 0.1673801 c 0,2.5927642 1.601093,4.0982697 4.062475,4.0982697 h 0.764803 l 0.896185,-1.899652 h -1.314432 c -1.338329,0 -2.174619,-0.7528036 -2.174619,-2.210617"
             id="Fill-4"
             style="fill:#575757;fill-opacity:0.476684" />
          <path
             d="M 3.6920222,2.0337798e-5 0,8.3640415 H 2.461382 L 3.1662901,6.667259 H 7.0376917 L 7.754599,8.3640415 h 2.521175 L 6.5835486,2.0337798e-5 Z M 3.9309913,4.8271967 5.1020417,2.0312579 6.2728888,4.8271967 Z"
             id="Fill-5"
             style="fill:#575757;fill-opacity:0.476684" />
          <polygon
             id="Fill-6"
             points="12.892588,8.3640415 12.892588,2.3419178 15.1029,8.3640415 17.086445,8.3640415 19.296961,2.3419178 19.296961,8.3640415 21.495476,8.3640415 21.495476,2.0337798e-05 18.018527,2.0337798e-05 16.118569,5.2693404 14.206816,2.0337798e-05 10.693869,2.0337798e-05 10.693869,8.3640415 "
             style="fill:#575757;fill-opacity:0.476684" />
          <polygon
             id="Fill-7"
             points="25.437938,5.1259386 30.157629,5.1259386 30.157629,3.2260832 25.437938,3.2260832 25.437938,1.8997537 30.277114,1.8997537 30.277114,8.6705248e-15 23.203628,8.6705248e-15 23.203628,8.3640212 30.277114,8.3640212 30.277114,6.4642674 25.437938,6.4642674 "
             style="fill:#575757;fill-opacity:0.476684" />
          <path
             d="M 53.710549,2.0337798e-5 50.018526,8.3640415 h 2.461382 l 0.70501,-1.6967825 h 3.8713 l 0.716907,1.6967825 h 2.521176 L 56.602278,2.0337798e-5 Z M 53.949518,4.8271967 l 1.17105,-2.7959388 1.170847,2.7959388 z"
             id="Fill-8"
             style="fill:#575757;fill-opacity:0.476684" />
          <polygon
             id="Fill-9"
             points="62.935001,8.3640517 62.935001,3.0708346 66.447847,8.3640517 69.148198,8.3640517 69.148198,3.0506697e-05 66.937683,3.0506697e-05 66.937683,5.1020722 63.532322,3.0506697e-05 60.712486,3.0506697e-05 60.712486,8.3640517 "
             style="fill:#575757;fill-opacity:0.476684" />
          <path
             d="m 59.58203,13.987677 h -2.055134 c -0.442144,0 -0.764701,-0.262866 -0.764701,-0.669114 0,-0.39435 0.322557,-0.657216 0.764701,-0.657216 h 3.715919 l 0.872288,-1.899855 h -4.600308 c -1.899754,0 -2.987013,1.123256 -2.987013,2.62866 0,1.577196 1.051363,2.497278 2.688454,2.497278 h 2.055134 c 0.454042,0 0.764702,0.262866 0.764702,0.669215 0,0.406248 -0.31066,0.669114 -0.764702,0.669114 h -4.480722 v 1.899754 h 4.49262 c 1.875959,0 2.987216,-1.099157 2.987216,-2.712249 0,-1.529402 -0.979875,-2.425587 -2.688454,-2.425587"
             id="Fill-11"
             style="fill:#575757;fill-opacity:0.476684" />
          <path
             d="m 45.344972,13.461975 c 0,-1.601195 -1.147154,-2.700453 -2.987216,-2.700453 h -4.839278 v 8.36392 h 2.234514 v -2.92722 h 0.812394 l 2.545173,2.92722 H 45.8825 l -2.771941,-3.023011 c 1.397919,-0.298559 2.234413,-1.326228 2.234413,-2.640456 m -3.250082,0.884084 h -2.341898 v -1.684681 h 2.341898 c 0.669113,0 1.003772,0.39435 1.003772,0.848391 0,0.465837 -0.334659,0.83629 -1.003772,0.83629"
             id="Fill-13"
             style="fill:#575757;fill-opacity:0.476684" />
          <polygon
             id="Fill-15"
             points="48.750353,15.8874 53.470044,15.8874 53.470044,13.987646 48.750353,13.987646 48.750353,12.661418 53.589529,12.661418 53.589529,10.761461 46.515839,10.761461 46.515839,19.125482 53.589529,19.125482 53.589529,17.225729 48.750353,17.225729 "
             style="fill:#575757;fill-opacity:0.476684" />
          <path
             d="m 33.575478,10.761482 h -4.898867 v 8.364021 h 2.23431 v -2.724248 h 2.592866 c 1.887856,0 3.058907,-1.194948 3.058907,-2.819836 0,-1.672784 -1.147154,-2.819937 -2.987216,-2.819937 m -0.262866,3.739816 h -2.401691 v -1.839961 h 2.401691 c 0.669215,0 1.003772,0.418145 1.003772,0.93198 0,0.501835 -0.334557,0.907981 -1.003772,0.907981"
             id="Fill-17"
             style="fill:#575757;fill-opacity:0.476684" />
          <path
             d="m 67.797596,13.987677 h -2.055135 c -0.442143,0 -0.764803,-0.262866 -0.764803,-0.669114 0,-0.39435 0.32266,-0.657216 0.764803,-0.657216 h 3.715919 l 0.872288,-1.899855 h -4.600206 c -1.899855,0 -2.987114,1.123256 -2.987114,2.62866 0,1.577196 1.051362,2.497278 2.688453,2.497278 h 2.055135 c 0.454041,0 0.764701,0.262866 0.764701,0.669215 0,0.406248 -0.31066,0.669114 -0.764701,0.669114 h -4.480722 v 1.899754 h 4.492619 c 1.876061,0 2.987216,-1.099157 2.987216,-2.712249 0,-1.529402 -0.979875,-2.425587 -2.688453,-2.425587"
             id="Fill-18"
             style="fill:#575757;fill-opacity:0.476684" />
          <polygon
             id="Fill-19"
             points="12.92825,15.8874 17.648043,15.8874 17.648043,13.987646 12.92825,13.987646 12.92825,12.661418 17.767527,12.661418 17.767527,10.761461 10.693838,10.761461 10.693838,19.125482 17.767527,19.125482 17.767527,17.225729 12.92825,17.225729 "
             style="fill:#575757;fill-opacity:0.476684" />
          <polygon
             id="Fill-20"
             points="18.161684,10.761482 21.841911,14.895749 18.089993,19.125503 20.933828,19.125503 23.216136,16.472945 25.49824,19.125503 28.413765,19.125503 24.637951,14.847955 28.270383,10.761482 25.426549,10.761482 23.25193,13.282657 21.077209,10.761482 "
             style="fill:#575757;fill-opacity:0.476684" />
        </g>
        <g
           id="Visa"
           transform="translate(201,5)"
           fill="#FFFFFF"
           style="fill:#575757;fill-opacity:0.476684">
          <path
             d="M 23.110435,0.3526087 15.14087,19.662174 H 9.9421739 L 6.02,4.2517391 C 5.7826087,3.3043478 5.5752174,2.9556522 4.8521739,2.5552174 3.6691304,1.9026087 1.7165217,1.2926087 0,0.91304348 L 0.11608696,0.3526087 H 8.4856522 c 1.0660869,0 2.0252178,0.7204348 2.2691308,1.9673913 L 12.826522,13.494783 17.943044,0.3526087 Z M 43.481304,13.357826 c 0.02174,-5.0956521 -6.936087,-5.3782608 -6.889565,-7.6552173 0.01522,-0.6917391 0.664348,-1.4286957 2.085218,-1.6169565 0.704347,-0.092609 2.647826,-0.1669565 4.851304,0.863913 L 44.39,0.85304348 C 43.206087,0.41869565 41.683478,0 39.78913,0 c -4.862608,0 -8.283043,2.6230435 -8.310434,6.3821739 -0.03087,2.78 2.443478,4.3300001 4.303913,5.2560871 1.918261,0.946087 2.561304,1.553478 2.551739,2.398696 -0.01348,1.295652 -1.53,1.86913 -2.941305,1.890869 -2.474782,0.03913 -3.908695,-0.67913 -5.051739,-1.220435 l -0.892608,4.233044 c 1.150869,0.535217 3.271739,1.000869 5.467826,1.024782 5.16913,0 8.549565,-2.592608 8.564782,-6.607391 z m 12.840435,6.304348 h 4.547826 L 56.896087,0.3526087 H 52.70087 c -0.945653,0 -1.742609,0.55695652 -2.095218,1.4156522 L 43.225217,19.662174 h 5.165653 l 1.025217,-2.883913 h 6.309565 z M 50.831304,12.82087 53.42087,5.5695652 54.91,12.82087 Z M 30.138696,0.3526087 26.072174,19.662174 H 21.153478 L 25.220435,0.3526087 Z"
             id="path3953"
             style="fill:#575757;fill-opacity:0.476684" />
        </g>
        <g
           id="mc_vrt_solid_rev-2"
           transform="translate(129)"
           fill="#FFFFFE"
           style="fill:#575757;fill-opacity:0.476684">
          <path
             d="M 19.843066,2.6264835 C 19.685,2.7508242 19.530341,2.8789121 19.379088,3.0107473 16.794846,5.2590989 15.159,8.5692857 15.159,12.263736 c 0,3.694451 1.635846,7.004297 4.220088,9.252989 0.151253,0.131835 0.305912,0.259583 0.463978,0.383923 0.158066,-0.12434 0.312725,-0.252088 0.463978,-0.383923 2.584582,-2.248692 4.220088,-5.558538 4.220088,-9.252989 0,-3.6944503 -1.635506,-7.0046371 -4.220088,-9.2529887 C 20.155791,2.8789121 20.001132,2.7508242 19.843066,2.6264835 Z M 27.422396,0 c -2.51066,0 -4.844858,0.7549011 -6.789,2.0497472 0.09947,0.081418 0.200307,0.1614726 0.296373,0.2452748 2.889473,2.5137252 4.546099,6.1471978 4.546099,9.968714 0,3.821517 -1.656626,7.454989 -4.545758,9.968374 -0.09572,0.08346 -0.197242,0.164198 -0.296714,0.245615 1.943802,1.294506 4.27834,2.049747 6.789,2.049747 6.772989,0 12.263736,-5.490747 12.263736,-12.263736 C 39.686132,5.4904066 34.195385,0 27.422396,0 Z m -8.666033,22.23211 c 0.09572,0.08346 0.196901,0.163857 0.296373,0.245615 -1.943802,1.294846 -4.278,2.049747 -6.789,2.049747 C 5.4904066,24.527472 0,19.036725 0,12.263736 0,5.4907472 5.4904066,0 12.263736,0 c 2.51066,0 4.845198,0.7549011 6.789,2.0497472 -0.09947,0.081418 -0.199967,0.1614726 -0.296373,0.2452748 -2.889132,2.5137252 -4.546099,6.1471978 -4.546099,9.968714 0,3.821857 1.656967,7.454989 4.546099,9.968374 z m 20.545505,-2.368945 v -0.476242 h -0.124 l -0.143077,0.327714 -0.143077,-0.327714 h -0.12434 v 0.476242 h 0.08789 V 19.50411 l 0.133879,0.309319 h 0.09096 l 0.13422,-0.31 v 0.359736 z m -0.786923,0 v -0.394824 h 0.159088 v -0.0804 h -0.405385 v 0.0804 h 0.159088 v 0.394824 z m 0.383242,10.587692 v 0.08006 h 0.07358 c 0.01703,0 0.03066,-0.0034 0.04054,-0.0099 0.01022,-0.0065 0.01499,-0.01669 0.01499,-0.03066 0,-0.01329 -0.0048,-0.02316 -0.01499,-0.02964 -0.0099,-0.0065 -0.02351,-0.0099 -0.04054,-0.0099 z m 0.0746,-0.05621 c 0.03849,0 0.06813,0.0085 0.08925,0.02555 0.02078,0.01737 0.03134,0.04054 0.03134,0.07018 0,0.02487 -0.0085,0.04565 -0.02521,0.06166 -0.01669,0.01601 -0.0402,0.02589 -0.07086,0.02964 l 0.09845,0.11344 h -0.07699 l -0.0913,-0.112758 h -0.0293 v 0.112758 h -0.06439 v -0.300462 z m -0.01908,0.403682 c 0.03475,0 0.06745,-0.0068 0.09743,-0.01976 0.03032,-0.01328 0.05655,-0.03134 0.07937,-0.05416 0.02282,-0.02248 0.04054,-0.0494 0.05348,-0.08005 0.01295,-0.03066 0.01942,-0.06336 0.01942,-0.09845 0,-0.03475 -0.0065,-0.06745 -0.01942,-0.09811 -0.01294,-0.03066 -0.03066,-0.05757 -0.05348,-0.08039 -0.02282,-0.02248 -0.04905,-0.04054 -0.07937,-0.05348 -0.02998,-0.01294 -0.06268,-0.01942 -0.09743,-0.01942 -0.03543,0 -0.06881,0.0065 -0.09947,0.01942 -0.031,0.01295 -0.05791,0.031 -0.08074,0.05348 -0.02248,0.02282 -0.04054,0.04974 -0.05348,0.08039 -0.01295,0.03066 -0.01942,0.06336 -0.01942,0.09811 0,0.03509 0.0065,0.06779 0.01942,0.09845 0.01295,0.03066 0.031,0.05757 0.05348,0.08005 0.02282,0.02282 0.04974,0.04088 0.08074,0.05416 0.03066,0.01295 0.06404,0.01976 0.09947,0.01976 z m 0,-0.576055 c 0.04531,0 0.08823,0.0085 0.128088,0.02555 0.03986,0.01669 0.07494,0.03986 0.104583,0.06949 0.02998,0.0293 0.05348,0.0637 0.07086,0.102879 0.01703,0.03952 0.02555,0.08142 0.02555,0.125703 0,0.04463 -0.0085,0.08619 -0.02555,0.125363 -0.01737,0.03918 -0.04088,0.07358 -0.07086,0.102879 -0.02964,0.0293 -0.06473,0.05246 -0.104583,0.06984 -0.03986,0.01703 -0.08278,0.02555 -0.128088,0.02555 -0.04667,0 -0.08993,-0.0085 -0.130472,-0.02555 -0.04054,-0.01737 -0.07563,-0.04054 -0.105264,-0.06984 -0.02964,-0.0293 -0.0528,-0.0637 -0.07018,-0.102879 -0.01703,-0.03918 -0.02555,-0.08074 -0.02555,-0.125363 0,-0.04429 0.0085,-0.08619 0.02555,-0.125703 0.01737,-0.03918 0.04054,-0.07358 0.07018,-0.102879 0.02964,-0.02964 0.06472,-0.0528 0.105264,-0.06949 0.04054,-0.01703 0.0838,-0.02555 0.130472,-0.02555 z M 8.5754176,29.066077 c 0,-0.572308 0.3747253,-1.042077 0.9875714,-1.042077 0.585934,0 0.981099,0.44933 0.981099,1.042077 0,0.592747 -0.395165,1.042417 -0.981099,1.042417 -0.6128461,0 -0.9875714,-0.470109 -0.9875714,-1.042417 z m 2.6363624,0 v -1.628011 h -0.708571 v 0.395165 c -0.224835,-0.292967 -0.5654947,-0.476923 -1.0287914,-0.476923 -0.9126264,0 -1.628011,0.715384 -1.628011,1.709769 0,0.994725 0.7153846,1.71011 1.628011,1.71011 0.4632967,0 0.8039564,-0.183956 1.0287914,-0.476923 v 0.395165 h 0.708571 z m 23.924506,0 c 0,-0.572308 0.374725,-1.042077 0.987912,-1.042077 0.585593,0 0.980758,0.44933 0.980758,1.042077 0,0.592747 -0.395165,1.042417 -0.980758,1.042417 -0.613187,0 -0.987912,-0.470109 -0.987912,-1.042417 z m 2.636362,0 v -2.936143 h -0.708571 v 1.703297 c -0.224835,-0.292967 -0.565495,-0.476923 -1.028451,-0.476923 -0.912967,0 -1.628351,0.715384 -1.628351,1.709769 0,0.994725 0.715384,1.71011 1.628351,1.71011 0.462956,0 0.803616,-0.183956 1.028451,-0.476923 v 0.395165 h 0.708571 z M 19.999429,27.989934 c 0.456483,0 0.74945,0.285813 0.824395,0.789989 h -1.68933 c 0.0746,-0.47011 0.360759,-0.789989 0.864935,-0.789989 z m 0.01363,-0.633626 c -0.953846,0 -1.621198,0.694945 -1.621198,1.709769 0,1.035604 0.694604,1.71011 1.66889,1.71011 0.49055,0 0.94022,-0.122978 1.335385,-0.456484 l -0.347473,-0.524615 c -0.272527,0.218022 -0.62,0.340659 -0.947033,0.340659 -0.456483,0 -0.872088,-0.211209 -0.974285,-0.797143 h 2.418681 c 0.0068,-0.08857 0.01329,-0.177142 0.01329,-0.272527 -0.0065,-1.014824 -0.633286,-1.709769 -1.546253,-1.709769 z m 8.549527,1.709769 c 0,-0.572308 0.374385,-1.042077 0.987572,-1.042077 0.585934,0 0.981099,0.44933 0.981099,1.042077 0,0.592747 -0.395165,1.042417 -0.981099,1.042417 -0.613187,0 -0.987572,-0.470109 -0.987572,-1.042417 z m 2.636363,0 v -1.628011 h -0.708571 v 0.395165 c -0.224835,-0.292967 -0.565495,-0.476923 -1.028792,-0.476923 -0.912626,0 -1.628011,0.715384 -1.628011,1.709769 0,0.994725 0.715385,1.71011 1.628011,1.71011 0.463297,0 0.803957,-0.183956 1.028792,-0.476923 v 0.395165 h 0.708571 z m -6.635363,0 c 0,0.987912 0.688132,1.71011 1.737363,1.71011 0.490549,0 0.817242,-0.109011 1.171527,-0.388352 l -0.340659,-0.572307 c -0.265714,0.190769 -0.545055,0.292966 -0.851308,0.292966 -0.565494,-0.0068 -0.981098,-0.415604 -0.981098,-1.042417 0,-0.626473 0.415604,-1.035264 0.981098,-1.042077 0.306253,0 0.585594,0.101857 0.851308,0.292967 l 0.340659,-0.572308 c -0.354285,-0.27934 -0.680978,-0.388351 -1.171527,-0.388351 -1.049231,0 -1.737363,0.722197 -1.737363,1.709769 z m 9.128649,-1.709769 c -0.408791,0 -0.674506,0.190769 -0.858462,0.476923 v -0.395165 h -0.701758 v 3.256363 h 0.708571 v -1.825935 c 0,-0.537901 0.231649,-0.837681 0.694945,-0.837681 0.143077,0 0.292967,0.02044 0.442858,0.08176 l 0.218022,-0.667692 c -0.157044,-0.06132 -0.36144,-0.08857 -0.504176,-0.08857 z m -18.979154,0.340659 c -0.340659,-0.224835 -0.810769,-0.340659 -1.328231,-0.340659 -0.824395,0 -1.355824,0.395164 -1.355824,1.042077 0,0.531428 0.395165,0.858461 1.124176,0.960659 l 0.333846,0.04769 c 0.388011,0.05451 0.572308,0.156704 0.572308,0.34066 0,0.252087 -0.259242,0.395164 -0.742638,0.395164 -0.490549,0 -0.844835,-0.156703 -1.083296,-0.340659 l -0.333847,0.551868 c 0.388352,0.285813 0.878901,0.422418 1.41033,0.422418 0.939879,0 1.484934,-0.442857 1.484934,-1.062857 0,-0.572308 -0.429231,-0.872088 -1.137461,-0.974286 l -0.333846,-0.04769 c -0.306594,-0.04088 -0.551869,-0.101858 -0.551869,-0.31988 0,-0.238461 0.231649,-0.381538 0.62,-0.381538 0.415605,0 0.817242,0.156703 1.014825,0.279341 z m 9.135461,-0.340659 c -0.408791,0 -0.674505,0.190769 -0.858461,0.476923 v -0.395165 h -0.701758 v 3.256363 h 0.708571 v -1.825935 c 0,-0.537901 0.231648,-0.837681 0.694945,-0.837681 0.143077,0 0.292967,0.02044 0.442517,0.08176 l 0.218022,-0.667692 c -0.156704,-0.06132 -0.361099,-0.08857 -0.503836,-0.08857 z m -6.042615,0.08176 h -1.158242 v -0.987912 h -0.715044 v 0.987912 h -0.660879 v 0.647253 h 0.660879 v 1.484934 c 0,0.756263 0.292967,1.205934 1.130649,1.205934 0.306593,0 0.660879,-0.09573 0.885714,-0.252088 l -0.204396,-0.606374 c -0.211208,0.122638 -0.442857,0.183956 -0.626813,0.183956 -0.354286,0 -0.47011,-0.218022 -0.47011,-0.545055 v -1.471307 h 1.158242 z M 7.2195934,30.694429 v -2.043957 c 0,-0.769549 -0.4905494,-1.287351 -1.2805385,-1.294164 -0.4156044,-0.0068 -0.8448351,0.122637 -1.1446153,0.579121 -0.2248352,-0.361099 -0.5791209,-0.579121 -1.0761429,-0.579121 -0.3474725,0 -0.6881319,0.102197 -0.9538462,0.483736 V 27.438066 H 2.0558791 v 3.256363 h 0.7153846 v -1.805495 c 0,-0.565494 0.3134066,-0.864934 0.7971429,-0.864934 0.4697692,0 0.7082308,0.306593 0.7082308,0.858121 v 1.812308 H 4.992022 v -1.805495 c 0,-0.565494 0.3270329,-0.864934 0.7971428,-0.864934 0.4837363,0 0.715044,0.306593 0.715044,0.858121 v 1.812308 z"
             id="mc_vrt_solid_rev"
             style="fill:#575757;fill-opacity:0.476684" />
        </g>
        <g
           id="g3963"
           transform="translate(0,0.761905)"
           style="fill:#575757;fill-opacity:0.476684">
          <path
             d="m 52.80358,3.9530904 c 0.598799,-0.3060069 1.337519,-0.077533 1.649858,0.5097168 v 0 l 2.623584,4.9571351 2.623885,-4.9571351 c 0.312338,-0.5872503 1.051058,-0.8157237 1.650459,-0.5097168 0.599702,0.3054173 0.832301,1.0297516 0.520263,1.6170019 v 0 L 56.292263,16.117013 c -0.210031,0.393563 -0.611136,0.626459 -1.033305,0.643557 -0.207623,0.0097 -0.420363,-0.03361 -0.617756,-0.13443 -0.599401,-0.305123 -0.832301,-1.029457 -0.519962,-1.617002 v 0 L 55.697677,12.02277 52.282414,5.5700923 C 51.970075,4.982842 52.202975,4.2590974 52.80358,3.9530904 Z M 82.155492,3.6585219 c 1.322474,0 2.566111,0.5047051 3.501322,1.4206622 0.478738,0.4687389 0.478738,1.2278601 0,1.6957146 -0.477836,0.4681493 -1.252063,0.4681493 -1.730199,0 -0.473323,-0.4637273 -1.101912,-0.7190278 -1.771123,-0.7190278 -0.669812,0 -1.298401,0.2553005 -1.772025,0.7190278 -0.473021,0.4637272 -0.733905,1.0801631 -0.733905,1.735808 0,0.65535 0.260884,1.2714911 0.733905,1.7358083 0.473624,0.463137 1.102213,0.718733 1.772025,0.718733 0.669211,0 1.2978,-0.255596 1.771123,-0.718733 0.478136,-0.4684444 1.252363,-0.4684444 1.730199,0 0.478738,0.468149 0.478738,1.226681 0,1.69483 -0.935211,0.915957 -2.178848,1.420662 -3.501322,1.420662 -1.323076,0 -2.566713,-0.504705 -3.501923,-1.420662 -0.93521,-0.916252 -1.450358,-2.1346784 -1.450358,-3.4306383 0,-1.2956651 0.515148,-2.5149759 1.450358,-3.4315226 0.93521,-0.9159571 2.178847,-1.4206622 3.501923,-1.4206622 z m 9.892226,8.85e-5 C 94.778123,3.6586104 97,5.8357405 97,8.5107951 c 0,2.6750549 -2.221877,4.8512999 -4.952282,4.8512999 -2.730103,0 -4.95198,-2.176245 -4.95198,-4.8512999 0,-2.6750546 2.221877,-4.8521847 4.95198,-4.8521847 z m -42.577645,0.15887 c 0.675229,0 1.223176,0.5362491 1.223176,1.1983797 v 0 7.0104479 c 0,0.66154 -0.547947,1.198379 -1.223176,1.198379 -0.67553,0 -1.223477,-0.536839 -1.223477,-1.198379 v 0 -7.0104479 c 0,-0.6621306 0.547947,-1.1983797 1.223477,-1.1983797 z m 20.635469,-8.84e-5 c 0.291276,-0.010023 0.587064,0.082545 0.827788,0.2800641 0.517856,0.4256975 0.584958,1.1815758 0.151054,1.6892289 v 0 l -4.317675,5.04086 h 3.380659 c 0.67553,0 1.223477,0.536838 1.223477,1.198674 0,0.661541 -0.547947,1.19838 -1.223477,1.19838 v 0 h -6.004544 c -0.278035,0 -0.556973,-0.09139 -0.786563,-0.280064 -0.517555,-0.425403 -0.584356,-1.181576 -0.150452,-1.688345 v 0 l 4.318276,-5.0420387 h -2.824287 c -0.674928,0 -1.222875,-0.5362491 -1.222875,-1.1980848 0,-0.6621306 0.547947,-1.1986745 1.222875,-1.1986745 v 0 z m 4.270794,8.84e-5 c 0.675831,0 1.223176,0.5362491 1.223176,1.1983797 v 0 7.0104479 c 0,0.66154 -0.547345,1.198379 -1.223176,1.198379 -0.67553,0 -1.223476,-0.536839 -1.223476,-1.198379 v 0 -7.0104479 c 0,-0.6621306 0.547946,-1.1983797 1.223476,-1.1983797 z m 17.671382,2.2384789 c -1.38115,0 -2.505629,1.1010943 -2.505629,2.4548358 0,1.353152 1.124479,2.4545409 2.505629,2.4545409 1.381452,0 2.505329,-1.1013889 2.505329,-2.4545409 0,-1.3537415 -1.123877,-2.4548358 -2.505329,-2.4548358 z M 49.470073,0 c 0.745941,0 1.351662,0.59344115 1.351662,1.3248507 0,0.7317044 -0.605721,1.3248508 -1.351662,1.3248508 -0.747145,0 -1.351963,-0.5931464 -1.351963,-1.3248508 C 48.11811,0.59344115 48.722928,0 49.470073,0 Z m 24.906263,0 c 0.746543,0 1.351662,0.59344115 1.351662,1.3248507 0,0.7317044 -0.605119,1.3248508 -1.351662,1.3248508 -0.746844,0 -1.351963,-0.5931464 -1.351963,-1.3248508 C 73.024373,0.59344115 73.629492,0 74.376336,0 Z"
             id="Combined-Shape"
             fill="#FFFFFF"
             style="fill:#575757;fill-opacity:0.476684" />
          <path
             d="m 66.708643,20.452349 c 2.069666,0 4.115412,1.738182 4.115412,4.250456 0,2.512275 -2.045746,4.249576 -4.115412,4.249576 -2.069375,0 -4.115121,-1.737301 -4.115121,-4.249576 0,-2.512274 2.045746,-4.250456 4.115121,-4.250456 z m 10.336517,-0.08325 c 0.342757,0 0.638548,0.286026 0.638548,0.631078 v 7.309529 c 0,0.345639 -0.295791,0.631078 -0.638548,0.631078 -0.343048,0 -0.62688,-0.285439 -0.62688,-0.631078 v -0.642825 c -0.08255,0.535638 -0.816198,1.285356 -1.939564,1.285356 -1.312393,0 -2.88499,-1.023704 -2.88499,-3.177711 0,-2.119649 1.584265,-3.167139 2.88499,-3.167139 0.875123,0 1.632104,0.452826 1.939564,1.142637 v -0.476026 c 0,-0.03553 0,-0.0834 0.01196,-0.118933 v -2.154888 c 0,-0.345052 0.284124,-0.631078 0.61492,-0.631078 z m -28.418603,2.274408 c 0.259911,0 0.484526,0.226119 0.484526,0.500106 v 5.285026 c 0,0.28632 -0.224615,0.512145 -0.484526,0.512145 -0.271872,0 -0.496779,-0.225825 -0.496779,-0.512145 V 23.14361 c 0,-0.273987 0.224907,-0.500106 0.496779,-0.500106 z m 2.294048,-2.27435 c 0.260495,0 0.48511,0.226707 0.48511,0.48836 v 7.57118 c 0,0.261946 -0.224615,0.499812 -0.48511,0.499812 -0.272164,0 -0.496487,-0.237866 -0.496487,-0.499812 v -7.57118 c 0,-0.261653 0.224323,-0.48836 0.496487,-0.48836 z m 4.577127,2.238288 c 1.347981,0 2.967543,1.071571 2.967543,3.00034 0,0.380292 -0.224615,0.559425 -0.626297,0.559425 l -4.351696,-0.02379 c 0.106182,1.333223 1.123367,1.964008 2.14026,1.964008 0.543743,0 0.981305,-0.15476 1.371318,-0.452826 0.17765,-0.11864 0.284123,-0.177959 0.413933,-0.177959 0.225198,0 0.366677,0.154759 0.366677,0.368839 0,0.130973 -0.05893,0.261946 -0.260204,0.440492 -0.472858,0.416412 -1.170039,0.642531 -1.915644,0.642531 -1.513671,0 -3.133233,-0.999917 -3.133233,-3.142471 0,-2.142555 1.67907,-3.178593 3.027343,-3.178593 z m 26.31367,-5.8e-5 c 1.347981,0 2.968126,1.071571 2.968126,2.964219 0,0.488359 -0.272164,0.678945 -0.78061,0.678945 l -3.961391,-0.01233 c 0.12981,1.107103 0.993265,1.655076 1.939273,1.655076 0.48511,0 0.816198,-0.118933 1.182583,-0.345053 0.200987,-0.107186 0.331088,-0.190586 0.496486,-0.190586 0.272164,0 0.437854,0.190586 0.437854,0.452239 0,0.155053 -0.05922,0.321559 -0.31942,0.535345 -0.44923,0.36972 -1.10003,0.583211 -1.845051,0.583211 -1.536717,0 -3.18049,-0.987583 -3.18049,-3.142471 0,-2.142555 1.714658,-3.178592 3.06264,-3.178592 z m -7.131408,1.083023 c -0.863163,0 -1.833091,0.679239 -1.833091,2.084116 0,1.416329 0.969928,2.094687 1.833091,2.094687 0.804238,0 1.797503,-0.619038 1.797503,-2.094687 0,-1.488277 -0.993265,-2.084116 -1.797503,-2.084116 z m -7.971351,-2.023474 c -1.442786,0 -2.778808,1.226624 -2.778808,3.035872 0,1.809249 1.336022,3.023539 2.778808,3.023539 1.442786,0 2.779099,-1.21429 2.779099,-3.023539 0,-1.809248 -1.324644,-3.035872 -2.779099,-3.035872 z m -11.210911,1.810041 c -0.875415,0 -1.904268,0.594665 -2.01045,1.927888 h 4.020316 c -0.106181,-1.333223 -1.123366,-1.927888 -2.009866,-1.927888 z m 26.31367,0.225767 c -0.78061,0 -1.667402,0.500106 -1.773875,1.630996 h 3.523829 C 83.455174,24.20285 82.603971,23.702744 81.811402,23.702744 Z M 48.626557,20.250163 c 0.259911,0 0.496486,0.226119 0.496486,0.500105 0,0.273693 -0.236575,0.500106 -0.496486,0.500106 -0.271872,0 -0.508447,-0.226413 -0.508447,-0.500106 0,-0.273986 0.236575,-0.500105 0.508447,-0.500105 z m 19.536541,-1.964449 c 0.378345,0 0.685804,0.309519 0.685804,0.679239 0,0.368839 -0.307459,0.678358 -0.685804,0.678358 -0.378345,0 -0.685805,-0.309519 -0.685805,-0.678358 0,-0.36972 0.30746,-0.679239 0.685805,-0.679239 z m -2.908618,0 c 0.378053,0 0.685221,0.309519 0.685221,0.679239 0,0.368839 -0.307168,0.678358 -0.685221,0.678358 -0.378637,0 -0.686097,-0.309519 -0.686097,-0.678358 0,-0.36972 0.30746,-0.679239 0.686097,-0.679239 z"
             id="path3959"
             fill="#FFFFFF"
             style="fill:#575757;fill-opacity:0.476684" />
          <g
             fill="url(#linearGradient-1)"
             id="Group-3"
             style="fill:#575757;fill-opacity:0.476684">
            <path
               d="M 3.7807087,0 C 1.6927493,0 0,1.7053122 0,3.8095238 V 26.666667 c 0,2.104211 1.6927493,3.809524 3.7807087,3.809524 H 32.323211 c 1.409784,0 2.702282,-0.790011 3.353236,-2.050371 l 5.904627,-11.428233 c 0.279604,-0.541799 0.421759,-1.134053 0.4268,-1.726984 v -0.06502 c -0.005,-0.592931 -0.147196,-1.185185 -0.4268,-1.726645 L 35.676447,2.0503704 C 35.025493,0.79034921 33.732995,0 32.323211,0 Z"
               id="Fill-1"
               style="fill:#575757;fill-opacity:0.476684" />
          </g>
        </g>
      </g>
    </g>
  </g>
  <metadata
     id="metadata6283">
    <rdf:RDF>
      <cc:Work
         rdf:about="">
        <dc:title>logo-band</dc:title>
      </cc:Work>
    </rdf:RDF>
  </metadata>
</svg>
