<?xml version="1.0" encoding="UTF-8" standalone="no"?>
<svg
   width="163"
   height="159"
   fill="none"
   version="1.1"
   id="svg820"
   sodipodi:docname="feature-2.svg"
   xml:space="preserve"
   inkscape:version="1.2.1 (9c6d41e, 2022-07-14)"
   xmlns:inkscape="http://www.inkscape.org/namespaces/inkscape"
   xmlns:sodipodi="http://sodipodi.sourceforge.net/DTD/sodipodi-0.dtd"
   xmlns="http://www.w3.org/2000/svg"
   xmlns:svg="http://www.w3.org/2000/svg"><defs
     id="defs824" /><sodipodi:namedview
     id="namedview822"
     pagecolor="#ffffff"
     bordercolor="#000000"
     borderopacity="0.25"
     inkscape:showpageshadow="2"
     inkscape:pageopacity="0.0"
     inkscape:pagecheckerboard="0"
     inkscape:deskcolor="#d1d1d1"
     showgrid="false"
     inkscape:zoom="0.51389291"
     inkscape:cx="-225.72797"
     inkscape:cy="73.945368"
     inkscape:window-width="1309"
     inkscape:window-height="456"
     inkscape:window-x="0"
     inkscape:window-y="25"
     inkscape:window-maximized="0"
     inkscape:current-layer="svg820" /><g
     id="g930"
     transform="matrix(0.12196647,0,0,0.12196647,49.313843,14.676498)"><g
       transform="translate(1,1)"
       id="g860">
	<path
   style="fill:#ffe100"
   d="m 423.107,246.467 c -23.04,0 -30.72,-13.653 -40.96,-34.987 -2.56,0.853 -5.12,0.853 -7.68,0.853 -42.667,0 -88.747,-38.4 -88.747,-85.333 0,-13.653 2.56,-25.6 7.68,-36.693 -17.92,-6.827 -30.72,-25.6 -30.72,-48.64 0,-12.8 4.267,-23.893 11.093,-33.28 C 267.8,7.533 260.973,7.533 255,7.533 132.12,7.533 33.133,118.467 33.133,255 c 0,136.533 98.987,247.467 221.867,247.467 122.88,0 221.867,-110.934 221.867,-247.467 0,-12.8 -0.853,-12.8 -2.56,-25.6 -11.094,17.92 -29.867,17.067 -51.2,17.067"
   id="path826" />
	<path
   style="fill:#ffffff"
   d="M 33.133,255 C 33.133,118.467 132.12,7.533 255,7.533 118.467,7.533 7.533,118.467 7.533,255 7.533,391.533 118.467,502.467 255,502.467 132.12,502.467 33.133,391.533 33.133,255"
   id="path828" />
	<path
   style="fill:#ffa800"
   d="m 499.053,216.6 c -5.973,9.387 -14.507,16.213 -23.893,22.187 0.853,5.12 1.707,7.68 1.707,17.067 0,136.533 -98.987,247.467 -221.867,247.467 136.533,0 247.467,-110.933 247.467,-247.467 0,-13.654 -0.854,-27.307 -3.414,-39.254"
   id="path830" />
	<path
   style="fill:#63d3fd"
   d="m 255,123.587 c 4.267,-1.707 7.68,-4.267 11.093,-6.827 1.707,-5.973 3.413,-11.947 5.973,-17.92 -19.627,-6.827 -34.133,-25.6 -34.133,-48.64 0,-2.56 0,-5.973 0.853,-8.533 h -0.853 c -2.56,0 -6.827,-0.853 -8.533,0.853 -12.8,13.653 -8.533,29.867 -8.533,50.347 z"
   id="path832" />
	<path
   style="fill:#3db9f9"
   d="m 260.12,41.667 c 0,-2.56 0,-5.973 0.853,-8.533 h -0.853 c -9.387,0 -17.92,3.413 -25.6,8.533 0,0 0,0 0.853,0 -0.853,2.56 -0.853,5.973 -0.853,8.533 0,22.187 14.507,40.96 34.133,48.64 -2.56,5.973 -5.12,11.947 -5.973,17.92 -0.853,0.853 -1.707,1.707 -2.56,1.707 0,0 0,0 0.853,0 11.093,0 20.48,-4.267 28.16,-10.24 1.707,-5.973 3.413,-11.947 5.973,-17.92 -20.479,-7.68 -34.986,-26.454 -34.986,-48.64"
   id="path834" />
	<path
   style="fill:#00da6c"
   d="m 357.4,365.933 c 0,-33.28 -21.333,-59.733 -46.933,-59.733 -25.6,0 -46.933,26.453 -46.933,59.733 0,33.28 21.333,59.733 46.933,59.733 25.6,0 46.933,-26.453 46.933,-59.733"
   id="path836" />
	<path
   style="fill:#00ad55"
   d="m 323.267,306.2 c -2.56,0 -5.12,0 -6.827,0.853 23.04,3.413 40.96,29.013 40.96,58.88 0,30.72 -17.92,55.467 -40.96,58.88 2.56,0 5.12,0.853 6.827,0.853 33.28,0 59.733,-26.453 59.733,-59.733 0,-33.28 -26.453,-59.733 -59.733,-59.733"
   id="path838" />
	<path
   style="fill:#63d3fd"
   d="m 161.133,365.933 c 0,-18.773 -9.387,-34.133 -21.333,-34.133 -11.947,0 -21.333,15.36 -21.333,34.133 0,18.773 9.387,34.133 21.333,34.133 11.947,0.001 21.333,-15.359 21.333,-34.133"
   id="path840" />
	<path
   style="fill:#3db9f9"
   d="m 151.747,331.8 c -2.56,0 -5.12,0 -7.68,0.853 9.387,3.413 16.213,17.067 16.213,33.28 0,16.213 -6.827,29.867 -16.213,33.28 2.56,0.853 5.12,0.853 7.68,0.853 18.773,0 34.133,-15.36 34.133,-34.133 0,-18.773 -15.36,-34.133 -34.133,-34.133"
   id="path842" />
	<path
   style="fill:#00da6c"
   d="m 161.133,186.733 c 0,-23.893 -13.653,-42.667 -29.867,-42.667 -16.214,0 -29.866,18.774 -29.866,42.667 0,23.893 13.653,42.667 29.867,42.667 16.214,0 29.866,-18.773 29.866,-42.667"
   id="path844" />
	<path
   style="fill:#00ad55"
   d="m 144.067,144.067 c -2.56,0 -5.12,0 -7.68,0.853 13.653,3.413 24.747,21.333 24.747,41.813 0,20.48 -10.24,38.4 -24.747,41.813 2.56,0.853 5.12,0.853 7.68,0.853 23.893,0 42.667,-18.773 42.667,-42.667 0,-23.894 -18.774,-42.665 -42.667,-42.665"
   id="path846" />
	<path
   d="M 255,511 C 114.2,511 -1,395.8 -1,255 -1,193.56 21.187,134.68 60.44,88.6 c 3.413,-4.267 8.533,-4.267 12.8,-1.707 3.413,3.413 4.267,8.533 0.853,11.947 -37.546,43.52 -58.026,98.987 -58.026,156.16 0,131.413 107.52,238.933 238.933,238.933 131.413,0 238.933,-107.52 238.933,-238.933 0,-5.973 0,-12.8 -0.853,-18.773 C 479.427,248.173 461.507,255 442.733,255 c -25.6,0 -49.493,-12.8 -64,-34.133 -1.707,0 -2.56,0 -4.267,0 -52.053,0 -93.867,-41.813 -93.867,-93.867 0,-11.093 1.707,-22.187 5.973,-32.427 C 267.8,84.333 255,63.853 255,41.667 c 0,-8.533 1.707,-17.92 5.973,-25.6 -1.707,0 -4.267,0 -5.973,0 -46.933,0 -93.013,13.653 -131.413,39.253 -4.267,2.56 -9.387,1.707 -11.947,-2.56 -2.56,-3.413 -1.707,-8.533 1.707,-11.093 C 156.013,13.507 204.653,-1 255,-1 c 6.827,0 13.653,0 21.333,0.853 3.413,0 5.973,2.56 6.827,5.12 0.853,2.56 0.853,5.973 -1.707,8.533 -5.973,8.533 -9.387,17.92 -9.387,28.16 0,17.92 11.093,34.133 28.16,40.107 2.56,0.853 4.267,2.56 5.12,5.12 0.853,2.56 0.853,5.12 0,6.827 -5.12,10.24 -7.68,21.333 -7.68,33.28 0,42.667 34.133,76.8 76.8,76.8 2.56,0 5.12,0 7.68,0 3.413,0 6.827,1.707 8.533,4.267 10.24,18.773 30.72,29.867 52.053,29.867 19.627,0 38.4,-10.24 49.493,-26.453 1.707,-2.56 5.12,-4.267 8.533,-3.413 3.413,0.853 5.973,3.413 6.827,6.827 C 509.293,228.547 511,241.347 511,255 511,395.8 395.8,511 255,511 Z"
   id="path848" />
	<path
   d="m 144.067,237.933 c -28.16,0 -51.2,-23.04 -51.2,-51.2 0,-28.16 23.04,-51.2 51.2,-51.2 28.16,0 51.2,23.04 51.2,51.2 0,28.16 -23.04,51.2 -51.2,51.2 z m 0,-85.333 c -18.773,0 -34.133,15.36 -34.133,34.133 0,18.773 15.36,34.133 34.133,34.133 18.773,0 34.133,-15.36 34.133,-34.133 0,-18.773 -15.36,-34.133 -34.133,-34.133 z"
   id="path850" />
	<path
   d="m 152.6,408.6 c -23.893,0 -42.667,-18.773 -42.667,-42.667 0,-23.893 18.773,-42.667 42.667,-42.667 23.894,0 42.667,18.773 42.667,42.667 0,23.894 -18.774,42.667 -42.667,42.667 z m 0,-68.267 c -14.507,0 -25.6,11.093 -25.6,25.6 0,14.507 11.093,25.6 25.6,25.6 14.507,0 25.6,-11.093 25.6,-25.6 0,-14.507 -11.093,-25.6 -25.6,-25.6 z"
   id="path852" />
	<path
   d="M 323.267,434.2 C 285.72,434.2 255,403.48 255,365.933 c 0,-37.547 30.72,-68.267 68.267,-68.267 37.547,0 68.267,30.72 68.267,68.267 0,37.547 -30.721,68.267 -68.267,68.267 z m 0,-119.467 c -28.16,0 -51.2,23.04 -51.2,51.2 0,28.16 23.04,51.2 51.2,51.2 28.16,0 51.2,-23.04 51.2,-51.2 0,-28.16 -23.04,-51.2 -51.2,-51.2 z"
   id="path854" />
	<path
   d="m 263.533,127 c -28.16,0 -51.2,-23.04 -51.2,-51.2 0,-28.16 23.04,-51.2 51.2,-51.2 0,0 0.853,0 1.707,0 2.56,0 4.267,0.853 5.973,3.413 1.707,1.707 1.707,4.267 1.707,6.827 -0.853,2.56 -0.853,4.267 -0.853,6.827 0,17.92 11.093,34.133 28.16,40.107 2.56,0.853 4.267,2.56 5.12,5.12 0.853,2.56 0.853,5.12 0,6.827 -2.56,5.12 -4.267,10.24 -5.973,16.213 0,1.707 -1.707,3.413 -2.56,4.267 C 287.427,122.733 275.48,127 263.533,127 Z M 255,42.52 c -14.507,3.413 -25.6,17.067 -25.6,33.28 0,18.773 15.36,34.133 34.133,34.133 8.533,0 15.36,-3.413 20.48,-6.827 0.853,-2.56 1.707,-5.973 2.56,-8.533 C 267.8,84.333 255,64.707 255,42.52 Z m 36.693,65.707 z"
   id="path856" />
	<path
   d="m 97.987,69.827 c 0,-5.12 -3.413,-8.533 -8.533,-8.533 -5.12,0 -8.533,3.413 -8.533,8.533 0,5.12 3.413,8.533 8.533,8.533 5.119,0 8.533,-4.267 8.533,-8.533"
   id="path858" />
</g><g
       id="g862">
</g><g
       id="g864">
</g><g
       id="g866">
</g><g
       id="g868">
</g><g
       id="g870">
</g><g
       id="g872">
</g><g
       id="g874">
</g><g
       id="g876">
</g><g
       id="g878">
</g><g
       id="g880">
</g><g
       id="g882">
</g><g
       id="g884">
</g><g
       id="g886">
</g><g
       id="g888">
</g><g
       id="g890">
</g></g><g
     id="g1318"
     transform="matrix(0.12307327,0,0,0.12307327,81.1414,88.437739)"><path
       style="fill:#723939"
       d="m 490.64,277.319 c 0,129.591 -105.059,234.665 -234.648,234.665 -129.598,0 -234.664,-105.074 -234.664,-234.665 0,-129.604 105.066,-234.664 234.664,-234.664 129.59,0 234.648,105.06 234.648,234.664 z"
       id="path1132" /><path
       style="fill:#f5f7fa"
       d="m 490.64,255.992 c 0,129.59 -105.059,234.649 -234.648,234.649 -129.598,0 -234.664,-105.059 -234.664,-234.649 0,-129.605 105.066,-234.665 234.664,-234.665 129.59,0 234.648,105.06 234.648,234.665 z"
       id="path1134" /><path
       id="SVGCleanerId_0"
       style="fill:#7f4545"
       d="m 490.64,234.649 c 0,129.605 -105.059,234.665 -234.648,234.665 C 126.394,469.314 21.336,364.254 21.336,234.649 21.336,105.059 126.394,0 255.992,0 385.582,0 490.64,105.059 490.64,234.649 Z" /><g
       id="g1138">
	<path
   id="SVGCleanerId_0_1_"
   style="fill:#7f4545"
   d="m 490.64,234.649 c 0,129.605 -105.059,234.665 -234.648,234.665 C 126.394,469.314 21.336,364.254 21.336,234.649 21.336,105.059 126.394,0 255.992,0 385.582,0 490.64,105.059 490.64,234.649 Z" />
</g><g
       id="g1220">
	<path
   style="fill:#602b2b"
   d="m 255.992,0 c -3.57,0 -7.133,0.078 -10.663,0.234 v 31.765 c 0,5.875 4.772,10.656 10.663,10.656 5.891,0 10.672,-4.781 10.672,-10.656 V 0.234 C 263.125,0.078 259.57,0 255.992,0 Z"
   id="path1140" />
	<path
   style="fill:#602b2b"
   d="m 255.992,426.643 c -5.891,0 -10.663,4.781 -10.663,10.672 v 31.749 c 3.53,0.156 7.093,0.25 10.663,0.25 3.578,0 7.133,-0.094 10.672,-0.25 v -31.749 c 0,-5.89 -4.781,-10.672 -10.672,-10.672 z"
   id="path1142" />
	<path
   style="fill:#602b2b"
   d="m 183.479,11.484 c -3.398,1.094 -6.758,2.281 -10.07,3.516 l 9.812,30.202 c 1.827,5.609 7.843,8.671 13.444,6.859 5.602,-1.828 8.664,-7.843 6.852,-13.453 l -9.82,-30.202 c -3.414,0.953 -6.82,1.969 -10.218,3.078 z"
   id="path1144" />
	<path
   style="fill:#602b2b"
   d="m 315.334,417.253 c -5.609,1.812 -8.688,7.828 -6.859,13.438 l 9.812,30.202 c 3.422,-0.938 6.828,-1.969 10.219,-3.062 3.391,-1.109 6.766,-2.281 10.078,-3.531 l -9.812,-30.202 c -1.829,-5.611 -7.844,-8.673 -13.438,-6.845 z"
   id="path1146" />
	<path
   style="fill:#602b2b"
   d="m 118.067,44.811 c -2.898,2.094 -5.719,4.25 -8.484,6.469 l 18.663,25.687 c 3.461,4.766 10.133,5.828 14.898,2.359 4.765,-3.469 5.82,-10.141 2.359,-14.906 L 126.839,38.733 c -2.96,1.953 -5.882,3.969 -8.772,6.078 z"
   id="path1148" />
	<path
   style="fill:#602b2b"
   d="m 368.847,389.972 c -4.766,3.469 -5.828,10.141 -2.359,14.906 l 18.656,25.687 c 2.969,-1.953 5.875,-3.969 8.781,-6.062 2.891,-2.109 5.719,-4.266 8.484,-6.469 l -18.672,-25.702 c -3.452,-4.766 -10.124,-5.813 -14.89,-2.36 z"
   id="path1150" />
	<path
   style="fill:#602b2b"
   d="m 66.146,96.716 c -2.094,2.906 -4.117,5.828 -6.07,8.781 l 25.695,18.655 c 4.765,3.469 11.429,2.406 14.897,-2.359 3.461,-4.766 2.406,-11.421 -2.359,-14.89 L 72.615,88.232 c -2.203,2.765 -4.359,5.593 -6.469,8.484 z"
   id="path1152" />
	<path
   style="fill:#602b2b"
   d="m 411.331,347.505 c -3.468,4.766 -2.406,11.438 2.344,14.891 l 25.687,18.671 c 2.219,-2.766 4.375,-5.593 6.469,-8.483 2.109,-2.891 4.125,-5.812 6.078,-8.781 l -25.688,-18.656 c -4.765,-3.47 -11.437,-2.408 -14.89,2.358 z"
   id="path1154" />
	<path
   style="fill:#602b2b"
   d="m 32.819,162.136 c -1.109,3.406 -2.125,6.812 -3.062,10.219 l 30.202,9.812 c 5.602,1.828 11.617,-1.25 13.438,-6.843 1.82,-5.609 -1.25,-11.625 -6.844,-13.438 l -30.202,-9.812 c -1.251,3.312 -2.43,6.671 -3.532,10.062 z"
   id="path1156" />
	<path
   style="fill:#602b2b"
   d="m 438.58,293.975 c -1.812,5.609 1.25,11.625 6.859,13.453 l 30.202,9.812 c 1.25,-3.312 2.422,-6.671 3.531,-10.077 1.094,-3.391 2.125,-6.797 3.062,-10.219 l -30.202,-9.812 c -5.608,-1.813 -11.624,1.25 -13.452,6.843 z"
   id="path1158" />
	<path
   style="fill:#602b2b"
   d="m 21.336,234.649 c 0,3.578 0.086,7.141 0.242,10.671 h 31.757 c 5.89,0 10.663,-4.781 10.663,-10.671 0,-5.89 -4.773,-10.656 -10.663,-10.672 H 21.578 c -0.156,3.547 -0.242,7.094 -0.242,10.672 z"
   id="path1160" />
	<path
   style="fill:#602b2b"
   d="m 447.986,234.649 c 0,5.891 4.781,10.671 10.656,10.671 h 31.764 c 0.172,-3.531 0.234,-7.093 0.25,-10.671 0,-3.578 -0.078,-7.125 -0.25,-10.672 h -31.764 c -5.875,0 -10.656,4.782 -10.656,10.672 z"
   id="path1162" />
	<path
   style="fill:#602b2b"
   d="m 32.819,307.163 c 1.109,3.406 2.281,6.766 3.531,10.077 l 30.194,-9.812 c 5.602,-1.828 8.672,-7.844 6.852,-13.453 -1.82,-5.594 -7.836,-8.656 -13.438,-6.844 l -30.202,9.812 c 0.938,3.423 1.954,6.829 3.063,10.22 z"
   id="path1164" />
	<path
   style="fill:#602b2b"
   d="m 438.58,175.323 c 1.828,5.593 7.844,8.671 13.453,6.843 l 30.202,-9.812 c -0.938,-3.406 -1.969,-6.812 -3.062,-10.219 -1.109,-3.391 -2.281,-6.75 -3.531,-10.062 l -30.202,9.812 c -5.61,1.813 -8.673,7.829 -6.86,13.438 z"
   id="path1166" />
	<path
   style="fill:#602b2b"
   d="m 66.146,372.583 c 2.109,2.891 4.266,5.718 6.469,8.483 l 25.687,-18.671 c 4.773,-3.453 5.828,-10.125 2.367,-14.891 -3.469,-4.766 -10.133,-5.828 -14.897,-2.359 l -25.696,18.657 c 1.953,2.968 3.977,5.89 6.07,8.781 z"
   id="path1168" />
	<path
   style="fill:#602b2b"
   d="m 411.331,121.793 c 3.453,4.765 10.125,5.828 14.89,2.359 l 25.688,-18.655 c -1.953,-2.953 -3.969,-5.875 -6.078,-8.781 -2.094,-2.891 -4.25,-5.718 -6.469,-8.484 l -25.687,18.671 c -4.75,3.453 -5.812,10.125 -2.344,14.89 z"
   id="path1170" />
	<path
   style="fill:#602b2b"
   d="m 118.067,424.503 c 2.89,2.094 5.812,4.109 8.765,6.062 l 18.672,-25.687 c 3.461,-4.766 2.406,-11.438 -2.359,-14.906 -4.766,-3.453 -11.438,-2.406 -14.898,2.359 l -18.671,25.702 c 2.772,2.204 5.601,4.36 8.491,6.47 z"
   id="path1172" />
	<path
   style="fill:#602b2b"
   d="m 368.832,79.326 c 4.781,3.453 11.438,2.406 14.906,-2.359 L 402.41,51.28 c -2.766,-2.219 -5.594,-4.375 -8.484,-6.469 -2.891,-2.109 -5.812,-4.125 -8.781,-6.078 L 366.489,64.42 c -3.47,4.765 -2.407,11.437 2.343,14.906 z"
   id="path1174" />
	<path
   style="fill:#602b2b"
   d="m 183.479,457.83 c 3.397,1.109 6.812,2.125 10.218,3.062 l 9.812,-30.202 c 1.82,-5.609 -1.242,-11.625 -6.844,-13.438 -5.602,-1.828 -11.625,1.25 -13.444,6.844 l -9.812,30.202 c 3.312,1.251 6.672,2.423 10.07,3.532 z"
   id="path1176" />
	<path
   style="fill:#602b2b"
   d="m 315.334,52.061 c 5.594,1.812 11.609,-1.25 13.438,-6.859 L 338.584,15 c -3.312,-1.234 -6.688,-2.422 -10.078,-3.516 -3.391,-1.109 -6.797,-2.125 -10.219,-3.078 l -9.812,30.202 c -1.829,5.61 1.234,11.625 6.859,13.453 z"
   id="path1178" />
	<path
   style="fill:#602b2b"
   d="m 248.453,302.835 c -4.163,4.172 -4.163,10.922 0,15.093 4.164,4.156 10.922,4.156 15.086,0 4.164,-4.171 4.164,-10.921 0,-15.093 -4.164,-4.156 -10.922,-4.156 -15.086,0 z"
   id="path1180" />
	<path
   style="fill:#602b2b"
   d="m 248.453,151.386 c -4.163,4.156 -4.163,10.921 0,15.078 4.164,4.172 10.922,4.172 15.086,0 4.164,-4.156 4.164,-10.921 0,-15.078 -4.164,-4.171 -10.922,-4.171 -15.086,0 z"
   id="path1182" />
	<path
   style="fill:#602b2b"
   d="m 263.531,92.872 c 4.164,-4.171 4.164,-10.921 0,-15.093 -4.164,-4.156 -10.922,-4.156 -15.086,0 -4.163,4.172 -4.163,10.921 0,15.093 4.164,4.156 10.922,4.156 15.086,0 z"
   id="path1184" />
	<path
   style="fill:#602b2b"
   d="m 248.445,376.441 c -4.163,4.156 -4.163,10.922 0,15.078 4.164,4.172 10.922,4.172 15.086,0 4.164,-4.156 4.164,-10.922 0,-15.078 -4.164,-4.171 -10.922,-4.171 -15.086,0 z"
   id="path1186" />
	<path
   style="fill:#602b2b"
   d="m 150.394,118.387 c -5.891,0 -10.664,4.781 -10.664,10.671 0,5.891 4.773,10.672 10.664,10.672 5.89,0 10.671,-4.781 10.671,-10.672 0,-5.89 -4.781,-10.655 -10.671,-10.671 z"
   id="path1188" />
	<path
   style="fill:#602b2b"
   d="m 361.582,329.584 c -5.89,0 -10.671,4.766 -10.671,10.655 0,5.891 4.781,10.672 10.671,10.672 5.891,0 10.656,-4.781 10.656,-10.672 0,-5.89 -4.766,-10.655 -10.656,-10.655 z"
   id="path1190" />
	<path
   style="fill:#602b2b"
   d="m 99.114,227.118 c -4.164,4.156 -4.164,10.906 0,15.078 4.172,4.171 10.922,4.171 15.086,0 4.164,-4.172 4.164,-10.922 0,-15.078 -4.164,-4.172 -10.914,-4.172 -15.086,0 z"
   id="path1192" />
	<path
   style="fill:#602b2b"
   d="m 412.862,227.118 c -4.172,-4.172 -10.921,-4.172 -15.093,0 -4.156,4.156 -4.156,10.906 0,15.078 4.172,4.171 10.921,4.171 15.093,0 4.156,-4.172 4.156,-10.922 0,-15.078 z"
   id="path1194" />
	<path
   style="fill:#602b2b"
   d="m 150.394,329.584 c -5.891,0 -10.664,4.766 -10.664,10.655 0,5.891 4.773,10.672 10.664,10.672 5.89,0 10.671,-4.781 10.671,-10.672 0,-5.89 -4.781,-10.655 -10.671,-10.655 z"
   id="path1196" />
	<path
   style="fill:#602b2b"
   d="m 361.582,118.403 c -5.89,0 -10.671,4.766 -10.671,10.656 0,5.891 4.781,10.672 10.671,10.672 5.891,0 10.656,-4.781 10.656,-10.672 0,-5.891 -4.766,-10.656 -10.656,-10.656 z"
   id="path1198" />
	<path
   style="fill:#602b2b"
   d="m 287.991,223.993 v 0 h -63.998 v 0 c -2.727,0 -5.461,1.031 -7.539,3.109 -4.163,4.172 -4.163,10.922 0,15.094 2.078,2.078 4.812,3.125 7.539,3.125 v 0 h 63.998 v 0 c 2.734,0 5.469,-1.047 7.547,-3.125 4.171,-4.172 4.171,-10.922 0,-15.094 -2.078,-2.078 -4.813,-3.109 -7.547,-3.109 z"
   id="path1200" />
	<path
   style="fill:#602b2b"
   d="m 340.881,234.649 c 0,-29.452 -38.016,-53.327 -84.889,-53.327 -46.881,0 -84.88,23.875 -84.88,53.327 0,29.452 37.999,53.342 84.88,53.342 46.873,0 84.889,-23.89 84.889,-53.342 z m -36.203,19.655 c -12.499,7.844 -30.248,12.344 -48.686,12.344 -18.437,0 -36.179,-4.5 -48.67,-12.344 -9.461,-5.953 -14.883,-13.108 -14.883,-19.655 0,-6.547 5.422,-13.703 14.883,-19.64 12.491,-7.859 30.233,-12.359 48.67,-12.359 18.438,0 36.187,4.5 48.686,12.359 9.438,5.937 14.875,13.093 14.875,19.64 0,6.547 -5.438,13.703 -14.875,19.655 z"
   id="path1202" />
	<path
   style="fill:#602b2b"
   d="m 331.724,300.663 59.123,24.483 24.483,-59.123 -59.123,-24.499 z m 36.045,-31.265 19.703,8.171 -8.172,19.703 -19.702,-8.156 z"
   id="path1204" />
	<path
   style="fill:#602b2b"
   d="m 165.503,369.505 59.123,24.499 24.491,-59.123 -59.123,-24.499 z m 36.03,-31.249 19.71,8.171 -8.163,19.703 -19.703,-8.172 z"
   id="path1206" />
	<path
   style="fill:#602b2b"
   d="m 346.489,99.794 -59.123,-24.483 -24.491,59.123 59.115,24.499 z m -36.03,31.264 -19.718,-8.171 8.155,-19.703 19.719,8.156 z"
   id="path1208" />
	<path
   style="fill:#602b2b"
   d="m 262.875,334.881 24.491,59.123 59.123,-24.499 -24.499,-59.123 z m 36.021,31.249 -8.155,-19.703 19.718,-8.171 8.156,19.702 z"
   id="path1210" />
	<path
   style="fill:#602b2b"
   d="m 249.117,134.433 -24.491,-59.123 -59.123,24.483 24.491,59.139 z m -36.037,-31.249 8.163,19.703 -19.71,8.171 -8.156,-19.718 z"
   id="path1212" />
	<path
   style="fill:#602b2b"
   d="m 180.268,168.651 -59.132,-24.483 -24.491,59.123 59.131,24.483 z m -36.038,31.249 -19.711,-8.156 8.164,-19.718 19.71,8.171 z"
   id="path1214" />
	<path
   style="fill:#602b2b"
   d="m 356.208,227.774 59.123,-24.483 -24.483,-59.139 -59.123,24.499 z m 23.093,-55.748 8.172,19.718 -19.703,8.156 -8.171,-19.703 z"
   id="path1216" />
	<path
   style="fill:#602b2b"
   d="m 155.776,241.54 -59.131,24.483 24.499,59.123 59.124,-24.483 z m -23.093,55.732 -8.164,-19.703 19.711,-8.171 8.163,19.718 z"
   id="path1218" />
</g><g
       id="g1222">
</g><g
       id="g1224">
</g><g
       id="g1226">
</g><g
       id="g1228">
</g><g
       id="g1230">
</g><g
       id="g1232">
</g><g
       id="g1234">
</g><g
       id="g1236">
</g><g
       id="g1238">
</g><g
       id="g1240">
</g><g
       id="g1242">
</g><g
       id="g1244">
</g><g
       id="g1246">
</g><g
       id="g1248">
</g><g
       id="g1250">
</g></g></svg>
