<?xml version="1.0" encoding="UTF-8" standalone="no"?>
<svg
   width="197"
   height="161"
   fill="none"
   version="1.1"
   id="svg4"
   sodipodi:docname="feature-1.svg"
   xml:space="preserve"
   inkscape:version="1.2.1 (9c6d41e, 2022-07-14)"
   xmlns:inkscape="http://www.inkscape.org/namespaces/inkscape"
   xmlns:sodipodi="http://sodipodi.sourceforge.net/DTD/sodipodi-0.dtd"
   xmlns="http://www.w3.org/2000/svg"
   xmlns:svg="http://www.w3.org/2000/svg"><defs
     id="defs8"><style
       id="style6968">.cls-1{fill:#c98955;}.cls-2{fill:#f9bc80;}.cls-3{fill:#f097b5;}.cls-4{fill:#f9f9f9;}.cls-5{fill:#158bec;}.cls-6{fill:#fbb434;}.cls-7{fill:#f00b62;}.cls-8{fill:#060493;}</style></defs><sodipodi:namedview
     id="namedview6"
     pagecolor="#ffffff"
     bordercolor="#000000"
     borderopacity="0.25"
     inkscape:showpageshadow="2"
     inkscape:pageopacity="0.0"
     inkscape:pagecheckerboard="0"
     inkscape:deskcolor="#d1d1d1"
     showgrid="false"
     inkscape:zoom="0.85804323"
     inkscape:cx="-185.30535"
     inkscape:cy="16.316194"
     inkscape:window-width="1309"
     inkscape:window-height="456"
     inkscape:window-x="0"
     inkscape:window-y="25"
     inkscape:window-maximized="0"
     inkscape:current-layer="svg4" /><g
     id="g342"
     transform="matrix(0.09351528,0,0,0.09351528,144.33681,16.40528)"><g
       transform="translate(1,1)"
       id="g279">
	<path
   style="fill:#a46f3e"
   d="m 435.2,238.933 c -25.446,0 -47.607,-13.952 -59.349,-34.603 -2.927,0.307 -5.905,0.469 -8.917,0.469 -47.13,0 -85.333,-38.204 -85.333,-85.333 0,-13.312 3.14,-25.865 8.576,-37.094 C 270.276,75.349 256,56.431 256,34.133 256,21.452 260.634,9.873 268.262,0.938 261.402,0.367 254.481,0 247.467,0 110.797,0 0,110.797 0,247.467 c 0,136.67 110.797,247.467 247.467,247.467 136.67,0 247.467,-110.797 247.467,-247.467 0,-13.193 -1.058,-26.129 -3.046,-38.767 -12.255,18.235 -33.068,30.233 -56.688,30.233"
   id="path259" />
	<path
   style="fill:none;stroke:#a46f3e;stroke-width:2"
   d="m 435.2,238.933 c -25.446,0 -47.607,-13.952 -59.349,-34.603 -2.927,0.307 -5.905,0.469 -8.917,0.469 -47.13,0 -85.333,-38.204 -85.333,-85.333 0,-13.312 3.14,-25.865 8.576,-37.094 C 270.276,75.349 256,56.431 256,34.133 256,21.452 260.634,9.873 268.262,0.938 261.402,0.367 254.481,0 247.467,0 110.797,0 0,110.797 0,247.467 c 0,136.67 110.797,247.467 247.467,247.467 136.67,0 247.467,-110.797 247.467,-247.467 0,-13.193 -1.058,-26.129 -3.046,-38.767 -12.255,18.235 -33.068,30.233 -56.688,30.233 z"
   id="path261" />
	<path
   style="fill:#6a3311"
   d="m 179.2,179.2 c 0,-23.561 -19.106,-42.667 -42.667,-42.667 -23.561,0 -42.666,19.106 -42.666,42.667 0,23.561 19.106,42.667 42.667,42.667 23.561,0 42.666,-19.106 42.666,-42.667"
   id="path263" />
	<path
   style="fill:none;stroke:#6a3311;stroke-width:2"
   d="m 179.2,179.2 c 0,-23.561 -19.106,-42.667 -42.667,-42.667 -23.561,0 -42.666,19.106 -42.666,42.667 0,23.561 19.106,42.667 42.667,42.667 23.561,0 42.666,-19.106 42.666,-42.667 z"
   id="path265" />
	<path
   style="fill:#6a3311"
   d="m 179.2,358.4 c 0,-18.85 -15.283,-34.133 -34.133,-34.133 -18.85,0 -34.133,15.283 -34.133,34.133 0,18.85 15.283,34.133 34.133,34.133 18.85,0 34.133,-15.283 34.133,-34.133"
   id="path267" />
	<path
   style="fill:none;stroke:#6a3311;stroke-width:2"
   d="m 179.2,358.4 c 0,-18.85 -15.283,-34.133 -34.133,-34.133 -18.85,0 -34.133,15.283 -34.133,34.133 0,18.85 15.283,34.133 34.133,34.133 18.85,0 34.133,-15.283 34.133,-34.133 z"
   id="path269" />
	<path
   style="fill:#6a3311"
   d="m 375.467,358.4 c 0,-32.99 -26.743,-59.733 -59.733,-59.733 -32.99,0 -59.734,26.743 -59.734,59.733 0,32.99 26.743,59.733 59.733,59.733 32.99,0 59.734,-26.743 59.734,-59.733"
   id="path271" />
	<path
   style="fill:none;stroke:#6a3311;stroke-width:2"
   d="m 375.467,358.4 c 0,-32.99 -26.743,-59.733 -59.733,-59.733 -32.99,0 -59.734,26.743 -59.734,59.733 0,32.99 26.743,59.733 59.733,59.733 32.99,0 59.734,-26.743 59.734,-59.733 z"
   id="path273" />
	<path
   style="fill:#6a3311"
   d="m 283.803,100.388 c 1.468,-6.298 3.618,-12.331 6.374,-18.014 -19.9,-7.023 -34.176,-25.941 -34.176,-48.239 0,-2.893 0.307,-5.7 0.768,-8.457 -0.265,-0.009 -0.503,-0.077 -0.768,-0.077 -23.569,0 -42.667,19.098 -42.667,42.667 0,23.561 19.098,42.667 42.667,42.667 10.676,0 20.319,-4.062 27.802,-10.547"
   id="path275" />
	<path
   style="fill:none;stroke:#6a3311;stroke-width:2"
   d="m 283.803,100.388 c 1.468,-6.298 3.618,-12.331 6.374,-18.014 -19.9,-7.023 -34.176,-25.941 -34.176,-48.239 0,-2.893 0.307,-5.7 0.768,-8.457 -0.265,-0.009 -0.503,-0.077 -0.768,-0.077 -23.569,0 -42.667,19.098 -42.667,42.667 0,23.561 19.098,42.667 42.667,42.667 10.676,0 20.319,-4.062 27.802,-10.547 z"
   id="path277" />
</g><g
       id="g281">
</g><g
       id="g283">
</g><g
       id="g285">
</g><g
       id="g287">
</g><g
       id="g289">
</g><g
       id="g291">
</g><g
       id="g293">
</g><g
       id="g295">
</g><g
       id="g297">
</g><g
       id="g299">
</g><g
       id="g301">
</g><g
       id="g303">
</g><g
       id="g305">
</g><g
       id="g307">
</g><g
       id="g309">
</g></g><g
     id="g731"
     transform="matrix(0.11666056,0,0,0.11666056,91.760279,65.390536)"><path
       style="fill:#f4be8e"
       d="m 232.45,15.912 c 12.953,2.141 34.14,2.141 47.093,0 l 33.998,-5.625 c 12.953,-2.141 31.093,3.75 40.312,13.109 l 24.218,24.515 c 9.219,9.359 26.359,21.812 38.093,27.687 l 30.812,15.453 c 11.734,5.875 22.953,21.312 24.922,34.28 l 5.155,34.077 c 1.969,12.984 8.516,33.14 14.562,44.796 l 15.844,30.593 c 6.047,11.656 6.047,30.734 0,42.389 l -15.844,30.609 c -6.046,11.655 -12.593,31.812 -14.562,44.795 l -5.155,34.062 c -1.969,12.984 -13.188,28.421 -24.922,34.296 l -30.812,15.438 c -11.733,5.89 -28.874,18.343 -38.093,27.687 l -24.218,24.53 c -9.219,9.344 -27.358,15.234 -40.312,13.094 l -33.998,-5.609 c -12.953,-2.141 -34.14,-2.141 -47.093,0 l -33.999,5.609 c -12.953,2.141 -31.093,-3.75 -40.312,-13.094 l -24.218,-24.53 c -9.219,-9.344 -26.359,-21.797 -38.093,-27.687 L 65.016,420.948 C 53.282,415.073 42.063,399.636 40.095,386.652 L 34.939,352.59 C 32.97,339.607 26.423,319.45 20.377,307.795 L 4.535,277.185 c -6.047,-11.655 -6.047,-30.733 0,-42.389 L 20.378,204.203 C 26.424,192.547 32.971,172.391 34.94,159.407 L 40.096,125.33 C 42.065,112.362 53.284,96.925 65.017,91.05 L 95.829,75.597 C 107.563,69.722 124.703,57.269 133.922,47.91 L 158.14,23.395 c 9.219,-9.359 27.358,-15.25 40.312,-13.109 z"
       id="path651" /><g
       id="g665">
	<polygon
   style="fill:#ffd2a6"
   points="231.263,482.351 301.932,489.679 337.26,484.351 337.26,458.351 337.26,388.353 325.26,327.012 273.59,298.356 266.668,349.011 250.59,408.352 218.669,459.68 209.935,483.007 "
   id="polygon653" />
	<polygon
   style="fill:#ffd2a6"
   points="202.669,355.683 218.669,320.355 202.669,298.856 135.266,295.013 78.595,295.013 24.597,275.685 59.939,399.01 145.265,384.353 "
   id="polygon655" />
	<polygon
   style="fill:#ffd2a6"
   points="59.939,120.361 93.267,176.36 129.937,209.687 160.593,239.686 191.998,206.359 186.592,175.016 171.264,90.362 171.264,33.692 146.593,57.691 96.595,86.362 59.939,105.018 "
   id="polygon657" />
	<polygon
   style="fill:#ffd2a6"
   points="248.59,170.36 292.589,175.688 322.588,155.017 407.93,119.689 443.928,106.362 403.258,85.018 365.93,55.691 343.26,30.364 322.588,25.692 269.934,93.018 255.996,133.017 "
   id="polygon659" />
	<polygon
   style="fill:#ffd2a6"
   points="371.93,293.013 410.585,324.355 451.928,383.682 457.928,375.683 477.927,309.685 499.254,269.685 494.582,248.357 443.928,234.358 377.258,211.015 328.588,211.015 310.588,266.654 342.588,275.685 "
   id="polygon661" />
	<path
   style="fill:#ffd2a6"
   d="M 507.457,234.795 491.613,204.202 C 485.567,192.546 479.02,172.39 477.051,159.406 l -5.155,-34.077 C 469.927,112.361 458.708,96.924 446.974,91.049 L 416.163,75.597 C 404.43,69.722 387.289,57.269 378.07,47.91 L 353.852,23.395 C 345.914,15.333 331.353,9.849 319.197,9.849 c -1.953,0 -3.859,0.141 -5.656,0.438 l -33.998,5.625 c -6.469,1.062 -15,1.594 -23.547,1.594 -8.531,0 -17.078,-0.531 -23.546,-1.594 l -33.999,-5.625 c -1.797,-0.297 -3.688,-0.438 -5.656,-0.438 -12.156,0 -26.718,5.484 -34.655,13.546 L 133.922,47.91 c -9.219,9.359 -26.359,21.812 -38.093,27.687 L 65.017,91.05 c -11.734,5.875 -22.953,21.312 -24.921,34.28 l -5.156,34.077 c -1.969,12.984 -8.516,33.14 -14.562,44.796 L 4.535,234.795 c -6.047,11.656 -6.047,30.734 0,42.389 l 15.843,30.609 c 6.046,11.655 12.593,31.812 14.562,44.795 l 5.156,34.062 c 1.969,12.984 13.188,28.421 24.921,34.296 l 30.812,15.438 c 11.734,5.89 28.874,18.343 38.093,27.687 l 24.218,24.53 c 7.938,8.047 22.5,13.547 34.655,13.547 1.969,0 3.859,-0.156 5.656,-0.453 l 33.999,-5.609 c 6.469,-1.078 15.016,-1.609 23.546,-1.609 8.547,0 17.078,0.531 23.547,1.609 l 33.998,5.609 c 1.797,0.297 3.703,0.453 5.656,0.453 12.156,0 26.718,-5.5 34.655,-13.547 l 24.218,-24.53 c 9.219,-9.344 26.359,-21.797 38.093,-27.687 l 30.812,-15.438 c 11.734,-5.875 22.953,-21.312 24.922,-34.296 l 5.155,-34.062 c 1.969,-12.983 8.516,-33.14 14.562,-44.795 l 15.844,-30.609 c 6.046,-11.655 6.046,-30.733 -0.001,-42.389 z m -34.796,-20.78 8.469,16.328 c -14.937,-7.062 -35.046,-15.062 -58.264,-20.499 -29.343,-6.891 -57.608,-8.234 -83.997,-4.016 -22.172,3.531 -42.983,11.015 -62.217,22.312 7.765,-17.218 18.374,-32.655 31.748,-46.124 16.812,-16.937 38.062,-30.905 63.139,-41.53 32,-13.547 62.264,-18.171 76.139,-19.671 1.609,2.688 2.781,5.437 3.125,7.718 l 5.156,34.077 c 2.312,15.187 9.641,37.764 16.702,51.405 z M 362.883,62.894 c 10.781,10.938 29.984,24.89 43.734,31.78 l 16.437,8.234 c -16.233,3.078 -37.202,8.422 -59.187,17.671 -27.779,11.671 -51.436,27.187 -70.31,46.124 -15.858,15.89 -28.296,34.171 -37.218,54.592 -3.828,-18.483 -4.328,-37.202 -1.422,-55.951 3.656,-23.577 12.625,-47.374 26.671,-70.717 17.905,-29.733 39.671,-51.264 50.015,-60.639 3.031,1.297 5.594,2.875 7.078,4.391 z m -167.916,-31.562 33.999,5.625 c 7.39,1.219 16.984,1.891 27.03,1.891 10.047,0 19.656,-0.672 27.03,-1.891 l 18.155,-3 c -11.327,12.031 -25.139,28.671 -37.498,49.077 -15.625,25.78 -25.64,52.232 -29.781,78.638 -3.484,22.187 -2.796,44.296 2,66.076 -13.984,-12.703 -25.39,-27.562 -34.062,-44.452 -10.921,-21.218 -17.64,-45.749 -19.983,-72.888 -3,-34.593 1.953,-64.811 4.812,-78.467 2.062,-0.469 4.156,-0.766 6.125,-0.766 1.032,10e-4 1.751,0.095 2.173,0.157 z m -120.388,78.78 30.812,-15.438 c 13.734,-6.89 32.937,-20.843 43.718,-31.78 L 162.03,49.817 c -2.094,16.39 -3.484,37.967 -1.484,61.748 2.516,30.03 9.968,57.326 22.125,81.122 10.218,19.984 23.765,37.468 40.436,52.264 -18.75,-2.062 -36.718,-7.375 -53.655,-15.937 -21.312,-10.75 -41.155,-26.64 -59.014,-47.217 -22.765,-26.233 -36.515,-53.608 -42.233,-66.326 2.062,-2.359 4.312,-4.328 6.374,-5.359 z M 39.331,214.015 c 7.062,-13.64 14.406,-36.233 16.702,-51.405 l 2.75,-18.187 c 7.938,14.483 19.5,32.765 35.093,50.826 19.687,22.812 41.765,40.515 65.592,52.624 20.015,10.172 41.249,16.359 63.436,18.516 -16.39,9.375 -34.046,15.624 -52.78,18.655 -23.562,3.812 -48.967,2.625 -75.498,-3.516 -33.843,-7.843 -61.045,-21.905 -73.154,-28.843 0.281,-3.109 0.938,-6.015 2,-8.078 z m 0,83.966 -8.469,-16.328 c 14.953,7.047 35.046,15.047 58.264,20.5 18.218,4.266 36.015,6.406 53.217,6.406 10.5,0 20.781,-0.797 30.78,-2.391 22.156,-3.547 42.952,-11 62.154,-22.281 -7.75,17.156 -18.343,32.562 -31.687,45.983 -16.812,16.937 -38.061,30.921 -63.139,41.53 -32.03,13.577 -62.342,18.187 -76.185,19.687 -1.594,-2.656 -2.734,-5.375 -3.078,-7.625 L 56.032,349.385 C 53.737,334.199 46.393,311.622 39.331,297.981 Z m 109.778,151.105 c -10.781,-10.937 -29.999,-24.89 -43.718,-31.765 l -16.593,-8.312 c 16.265,-3.077 37.28,-8.421 59.327,-17.687 27.78,-11.672 51.452,-27.202 70.326,-46.124 15.828,-15.874 28.265,-34.139 37.187,-54.545 3.844,18.484 4.328,37.218 1.422,55.982 -3.641,23.594 -12.625,47.39 -26.671,70.717 -17.906,29.749 -39.655,51.265 -49.999,60.639 -3.031,-1.281 -5.578,-2.875 -7.062,-4.375 z m 167.916,31.561 -33.999,-5.609 c -7.374,-1.219 -16.983,-1.891 -27.03,-1.891 -10.046,0 -19.64,0.672 -27.03,1.891 l -18.171,3 c 11.328,-12.03 25.155,-28.671 37.514,-49.076 15.609,-25.78 25.625,-52.249 29.781,-78.654 3.483,-22.187 2.796,-44.295 -2,-66.076 13.983,12.703 25.389,27.562 34.076,44.468 10.906,21.218 17.625,45.749 19.984,72.873 3,34.608 -1.953,64.811 -4.812,78.481 -2.078,0.469 -4.156,0.75 -6.141,0.75 -1.031,0 -1.75,-0.078 -2.172,-0.157 z m 120.387,-78.762 -30.795,15.437 c -13.734,6.875 -32.953,20.828 -43.734,31.765 l -12.921,13.094 c 2.094,-16.391 3.484,-37.968 1.5,-61.748 -2.531,-30.03 -9.968,-57.327 -22.14,-81.123 -10.219,-19.983 -23.75,-37.452 -40.405,-52.248 18.749,2.078 36.702,7.391 53.624,15.937 21.311,10.766 41.154,26.656 59.014,47.233 22.764,26.218 36.514,53.561 42.232,66.295 -2.062,2.358 -4.297,4.311 -6.375,5.358 z m 35.249,-103.904 c -7.062,13.641 -14.39,36.218 -16.702,51.404 l -2.75,18.203 c -7.938,-14.484 -19.5,-32.765 -35.077,-50.827 -19.702,-22.812 -41.765,-40.515 -65.607,-52.607 -20.03,-10.188 -41.28,-16.375 -63.482,-18.531 16.405,-9.375 34.077,-15.64 52.827,-18.671 23.561,-3.828 48.967,-2.641 75.497,3.516 33.843,7.844 61.061,21.89 73.153,28.828 -0.266,3.125 -0.938,6.031 -2,8.078 z"
   id="path663" />
</g><path
       style="fill:#fc6e51"
       d="m 362.664,255.997 c 0,58.906 -47.764,106.654 -106.668,106.654 -58.904,0 -106.668,-47.748 -106.668,-106.654 0,-58.904 47.764,-106.668 106.668,-106.668 58.904,0 106.668,47.764 106.668,106.668 z"
       id="path667" /><path
       style="fill:#e9573f"
       d="m 263.543,184.453 c -2.078,-2.078 -4.812,-3.125 -7.547,-3.125 v 0 c -41.202,0 -74.607,33.374 -74.669,74.576 h 0.016 c -0.031,2.766 1.016,5.532 3.109,7.641 4.172,4.156 10.922,4.156 15.094,0 2.109,-2.109 3.14,-4.875 3.125,-7.641 v 0 c 0.047,-29.358 23.953,-53.232 53.327,-53.248 2.734,0.016 5.453,-1.031 7.547,-3.109 4.154,-4.173 4.154,-10.923 -0.002,-15.094 z"
       id="path669" /><g
       id="g671">
</g><g
       id="g673">
</g><g
       id="g675">
</g><g
       id="g677">
</g><g
       id="g679">
</g><g
       id="g681">
</g><g
       id="g683">
</g><g
       id="g685">
</g><g
       id="g687">
</g><g
       id="g689">
</g><g
       id="g691">
</g><g
       id="g693">
</g><g
       id="g695">
</g><g
       id="g697">
</g><g
       id="g699">
</g></g><g
     id="g7200"
     transform="matrix(0.07780023,0,0,0.07780023,3.2136063,0.56625636)"><circle
       class="cls-1"
       cx="380.95999"
       cy="421.82999"
       r="360.85999"
       id="circle6974" /><circle
       class="cls-2"
       cx="374.32001"
       cy="401.94"
       r="360.85999"
       id="circle6976" /><circle
       class="cls-3"
       cx="373.63"
       cy="403.10001"
       r="332.14999"
       id="circle6978" /><circle
       class="cls-4"
       cx="429.76999"
       cy="158.36"
       r="15.85"
       id="circle6980" /><circle
       class="cls-5"
       cx="377.95999"
       cy="192.89999"
       r="15.85"
       id="circle6982" /><circle
       class="cls-6"
       cx="477.54999"
       cy="165.35001"
       r="15.85"
       id="circle6984" /><circle
       class="cls-7"
       cx="454.78"
       cy="132.16"
       r="15.85"
       id="circle6986" /><circle
       class="cls-7"
       cx="434.54001"
       cy="398.67999"
       r="15.85"
       id="circle6988" /><circle
       class="cls-8"
       cx="424.98001"
       cy="449.60999"
       r="15.85"
       id="circle6990" /><circle
       class="cls-5"
       cx="398.76001"
       cy="349.66"
       r="15.85"
       id="circle6992" /><circle
       class="cls-7"
       cx="365.26999"
       cy="371.98999"
       r="15.85"
       id="circle6994" /><circle
       class="cls-6"
       cx="314.75"
       cy="637.71997"
       r="15.85"
       id="circle6996" /><circle
       class="cls-8"
       cx="415.98001"
       cy="614.48999"
       r="15.85"
       id="circle6998" /><circle
       class="cls-4"
       cx="267.07001"
       cy="612.51001"
       r="15.85"
       id="circle7000" /><circle
       class="cls-5"
       cx="233.58"
       cy="634.84003"
       r="15.85"
       id="circle7002" /><circle
       class="cls-6"
       cx="422"
       cy="520.75"
       r="15.85"
       id="circle7004" /><circle
       class="cls-5"
       cx="370.20001"
       cy="555.28998"
       r="15.85"
       id="circle7006" /><circle
       class="cls-4"
       cx="469.78"
       cy="527.73999"
       r="15.85"
       id="circle7008" /><circle
       class="cls-6"
       cx="447.01001"
       cy="494.54999"
       r="15.85"
       id="circle7010" /><circle
       class="cls-8"
       cx="380.37"
       cy="274.70999"
       r="15.85"
       id="circle7012" /><circle
       class="cls-4"
       cx="328.56"
       cy="309.23999"
       r="15.85"
       id="circle7014" /><circle
       class="cls-4"
       cx="428.14999"
       cy="281.70001"
       r="15.85"
       id="circle7016" /><circle
       class="cls-6"
       cx="405.38"
       cy="248.50999"
       r="15.85"
       id="circle7018" /><circle
       class="cls-5"
       cx="480.57999"
       cy="189.25"
       r="15.85"
       id="circle7020" /><circle
       class="cls-7"
       cx="263.89001"
       cy="456.63"
       r="15.85"
       id="circle7022" /><circle
       class="cls-4"
       cx="300.79999"
       cy="441.42999"
       r="15.85"
       id="circle7024" /><circle
       class="cls-7"
       cx="363.29999"
       cy="533.29999"
       r="15.85"
       id="circle7026" /><circle
       class="cls-4"
       cx="499.51999"
       cy="326.5"
       r="15.85"
       id="circle7028" /><circle
       class="cls-5"
       cx="502.07999"
       cy="388.70999"
       r="15.85"
       id="circle7030" /><circle
       class="cls-6"
       cx="530.34998"
       cy="289.32999"
       r="15.85"
       id="circle7032" /><circle
       class="cls-7"
       cx="490.14999"
       cy="291.51001"
       r="15.85"
       id="circle7034" /><circle
       class="cls-7"
       cx="550.53003"
       cy="189.17999"
       r="15.85"
       id="circle7036" /><circle
       class="cls-8"
       cx="456.98999"
       cy="684.32001"
       r="15.85"
       id="circle7038" /><circle
       class="cls-5"
       cx="646.78998"
       cy="452.48001"
       r="15.85"
       id="circle7040" /><circle
       class="cls-7"
       cx="648.44"
       cy="492.70001"
       r="15.85"
       id="circle7042" /><circle
       class="cls-6"
       cx="216.73"
       cy="470.38"
       r="15.85"
       id="circle7044" /><circle
       class="cls-8"
       cx="249.53"
       cy="371.82999"
       r="15.85"
       id="circle7046" /><circle
       class="cls-4"
       cx="170.39999"
       cy="497.98999"
       r="15.85"
       id="circle7048" /><circle
       class="cls-5"
       cx="172.05"
       cy="538.21002"
       r="15.85"
       id="circle7050" /><circle
       class="cls-6"
       cx="172.60001"
       cy="317.94"
       r="15.85"
       id="circle7052" /><circle
       class="cls-5"
       cx="175.16"
       cy="380.14999"
       r="15.85"
       id="circle7054" /><circle
       class="cls-4"
       cx="203.42999"
       cy="280.76001"
       r="15.85"
       id="circle7056" /><circle
       class="cls-6"
       cx="163.23"
       cy="282.95001"
       r="15.85"
       id="circle7058" /><circle
       class="cls-8"
       cx="573.20001"
       cy="429.20999"
       r="15.85"
       id="circle7060" /><circle
       class="cls-4"
       cx="575.76001"
       cy="491.41"
       r="15.85"
       id="circle7062" /><circle
       class="cls-4"
       cx="604.02002"
       cy="392.03"
       r="15.85"
       id="circle7064" /><circle
       class="cls-6"
       cx="563.83002"
       cy="394.22"
       r="15.85"
       id="circle7066" /><circle
       class="cls-5"
       cx="552.33002"
       cy="299.16"
       r="15.85"
       id="circle7068" /><circle
       class="cls-7"
       cx="535.53998"
       cy="550.66998"
       r="15.85"
       id="circle7070" /><circle
       class="cls-4"
       cx="463.42001"
       cy="588.15002"
       r="15.85"
       id="circle7072" /><circle
       class="cls-7"
       cx="152.78999"
       cy="374.60001"
       r="15.85"
       id="circle7074" /><circle
       class="cls-7"
       cx="148.53999"
       cy="586.81"
       r="15.85"
       id="circle7076" /><circle
       class="cls-8"
       cx="112.84"
       cy="262.01999"
       r="15.85"
       id="circle7078" /><circle
       class="cls-6"
       cx="170.89999"
       cy="212.27"
       r="15.85"
       id="circle7080" /><circle
       class="cls-4"
       cx="197.42999"
       cy="171.92"
       r="15.85"
       id="circle7082" /><circle
       class="cls-6"
       cx="157.73"
       cy="178.53"
       r="15.85"
       id="circle7084" /><circle
       class="cls-4"
       cx="438.37"
       cy="120.37"
       r="15.85"
       id="circle7086" /><circle
       class="cls-4"
       cx="114.18"
       cy="412.64001"
       r="15.85"
       id="circle7088" /><circle
       class="cls-5"
       cx="112.61"
       cy="496.89001"
       r="15.85"
       id="circle7090" /><circle
       class="cls-6"
       cx="93.510002"
       cy="368.98999"
       r="15.85"
       id="circle7092" /><circle
       class="cls-7"
       cx="78.510002"
       cy="406.34"
       r="15.85"
       id="circle7094" /><circle
       class="cls-8"
       cx="333.94"
       cy="249.67"
       r="15.85"
       id="circle7096" /><circle
       class="cls-5"
       cx="338.09"
       cy="117.64"
       r="15.85"
       id="circle7098" /><circle
       class="cls-7"
       cx="375.23999"
       cy="133.13"
       r="15.85"
       id="circle7100" /><circle
       class="cls-8"
       cx="643.15002"
       cy="297.72"
       r="15.85"
       id="circle7102" /><circle
       class="cls-4"
       cx="288.84"
       cy="532.72998"
       r="15.85"
       id="circle7104" /><circle
       class="cls-4"
       cx="622.47998"
       cy="254.07001"
       r="15.85"
       id="circle7106" /><circle
       class="cls-6"
       cx="607.47998"
       cy="291.42001"
       r="15.85"
       id="circle7108" /><circle
       class="cls-5"
       cx="111.71"
       cy="353.22"
       r="15.85"
       id="circle7110" /><circle
       class="cls-7"
       cx="245.99001"
       cy="122.01"
       r="15.85"
       id="circle7112" /><circle
       class="cls-4"
       cx="249.49001"
       cy="203.21001"
       r="15.85"
       id="circle7114" /><circle
       class="cls-4"
       cx="413.98001"
       cy="674.40997"
       r="15.85"
       id="circle7116" /><circle
       class="cls-6"
       cx="329.91"
       cy="703.34998"
       r="15.85"
       id="circle7118" /><circle
       class="cls-5"
       cx="560.34998"
       cy="625.70001"
       r="15.85"
       id="circle7120" /></g></svg>
