<?xml version="1.0" encoding="UTF-8" standalone="no"?>
<svg
   width="143"
   height="152"
   fill="none"
   version="1.1"
   id="svg1619"
   sodipodi:docname="feature-3.svg"
   xml:space="preserve"
   inkscape:version="1.2.1 (9c6d41e, 2022-07-14)"
   xmlns:inkscape="http://www.inkscape.org/namespaces/inkscape"
   xmlns:sodipodi="http://sodipodi.sourceforge.net/DTD/sodipodi-0.dtd"
   xmlns="http://www.w3.org/2000/svg"
   xmlns:svg="http://www.w3.org/2000/svg"><defs
     id="defs1623" /><sodipodi:namedview
     id="namedview1621"
     pagecolor="#ffffff"
     bordercolor="#000000"
     borderopacity="0.25"
     inkscape:showpageshadow="2"
     inkscape:pageopacity="0.0"
     inkscape:pagecheckerboard="0"
     inkscape:deskcolor="#d1d1d1"
     showgrid="false"
     inkscape:zoom="1.5526316"
     inkscape:cx="71.491525"
     inkscape:cy="76"
     inkscape:window-width="1309"
     inkscape:window-height="456"
     inkscape:window-x="0"
     inkscape:window-y="25"
     inkscape:window-maximized="0"
     inkscape:current-layer="svg1619" /><g
     id="g1734"
     transform="matrix(0.39409182,0,0,0.39409182,79.46753,100.63999)"><path
       d="m 15.99,35.76 -4.26,0.98 c 0,0 -5.91,9.12 -7.2,18.82 -0.81,6.09 -0.84,14.04 -0.28,18 0.57,3.96 2.61,12.39 5.82,18.33 3.09,5.72 6.1,7.97 9.39,9.96 1.41,0.85 2.67,3.76 4.87,5.17 2.06,1.32 4.78,1.58 4.78,1.58 0,0 7.52,11.81 23.79,13.86 19.09,2.4 28.43,-6.22 28.43,-6.22 0,0 7.64,-0.02 14.85,-3.11 8.09,-3.47 12.41,-10.69 12.41,-10.69 0,0 10.13,-8.72 13.34,-19.16 2.58,-8.38 2.65,-24.31 0.67,-31.81 -1.98,-7.5 -5.81,-13.85 -8.85,-17.92 C 111.33,30.31 84.31,15.95 81.05,14.67 77.8,13.4 47.53,11.42 46.4,12.27 45.27,13.13 15.99,35.76 15.99,35.76 Z"
       fill="#ac5811"
       id="path1625" /><path
       d="m 26.53,19.75 c -7.05,5.74 -10.7,8.74 -14.36,15.92 -3.66,7.18 -2.48,16.71 -1.82,20.23 0.65,3.52 1.83,10.31 2.48,13.7 0.65,3.4 2.38,11.46 7.17,16.45 6.71,6.99 12.79,9.4 12.79,9.4 0,0 4.93,7.64 16.84,12.01 15.66,5.74 22.71,-2.61 28.71,-4.83 6,-2.22 13.18,-2.35 19.32,-6.66 6.13,-4.31 12.92,-9.53 17.36,-20.49 4.44,-10.96 3.52,-15.79 3.65,-18.53 0.13,-2.74 -0.26,-15.92 -5.35,-24.01 C 108.23,24.85 102.11,19.99 99.75,18.45 94.53,15.06 75.89,6.95 71.2,6.04 66.5,5.13 49.74,6.55 43.09,9.29 36.44,12.03 26.53,19.75 26.53,19.75 Z"
       fill="url(#IconifyId17ecdb2904d178eab6390)"
       id="path1640" /><path
       d="m 56.28,71.46 c -1.11,-0.35 -2.28,-2 -2.56,-5.53 -0.39,-5.03 3.32,-6.42 3.32,-6.42 0,0 4.42,-1.17 7.53,-2.28 2.89,-1.03 4.97,-2.35 4.97,-2.35 0,0 0.28,-5.39 2.07,-6.98 1.8,-1.59 4.97,-1.45 8.5,-1.04 3.52,0.41 9.19,2.76 8.36,4.9 -0.83,2.14 -1.8,4.28 -5.18,6.22 -3.38,1.93 -5.8,3.73 -7.53,5.25 -1.73,1.53 -4.9,3.45 -10.15,5.39 -5.25,1.94 -7.73,3.34 -9.33,2.84 z"
       fill="#ffc86e"
       id="path1642" /><path
       d="m 26.55,26.47 c -3.32,-0.68 -8.01,6.51 -8.88,8.89 -0.88,2.38 -1.78,8.18 -1.88,10.83 -0.13,3.29 -0.19,6.38 1.19,8.89 1.06,1.94 3.63,3.03 5.94,1.03 2.31,-2 6.32,-7.48 7.38,-8.25 1.06,-0.77 4.16,-1.79 2.94,-6.83 -0.5,-2.06 -5.57,-6.32 -5.82,-6.9 -0.24,-0.57 1.01,-7.27 -0.87,-7.66 z"
       fill="#ffc86e"
       id="path1644" /><path
       d="m 50.02,17.44 c 0.13,1.93 1.71,5.02 3.42,6.69 2.56,2.49 14.3,10.91 17.34,10.43 3.04,-0.48 6.35,-5.94 7.32,-7.46 0.97,-1.52 2.9,-3.66 3.66,-4.63 0.76,-0.97 2.76,-3.18 1.11,-5.39 -1.66,-2.21 -5.8,-3.66 -8.56,-3.87 -2.76,-0.21 -7.05,-2 -10.71,-1.86 -3.66,0.14 -13.92,1.11 -13.58,6.09 z"
       fill="#ffc86e"
       id="path1646" /><path
       d="m 98.34,43.19 c 0.23,2.1 3.18,2.56 5.53,4.08 2.35,1.52 3.94,3.11 5.32,2.69 1.38,-0.41 3.26,-2.62 2.83,-6.49 -0.55,-4.97 -3.66,-11.33 -8.01,-11.12 -2.63,0.13 -2.27,4.7 -2.27,4.7 0,0 -3.54,4.9 -3.4,6.14 z"
       fill="#ffc86e"
       id="path1648" /><path
       d="m 41.47,30.23 c 0,0 -9.43,-0.06 -9.26,0.88 0.18,0.94 1,4.04 3.46,4.16 2.46,0.12 5.63,0.35 7.15,-0.12 1.52,-0.47 5.74,-3.87 5.74,-5.39 0,-1.52 -1.7,-3.75 -1.7,-3.75 z"
       fill="#cf701e"
       id="path1650" /><path
       d="m 54.94,47.52 c 0,0 -0.11,0.07 -0.27,0.2 -0.47,0.39 -1.37,1.3 -1.02,2.32 0.47,1.35 3.22,3.87 5.92,3.87 2.7,0 4.16,-2.52 4.63,-4.16 0.47,-1.64 0.23,-2.64 0.23,-2.64 z"
       fill="#cf701e"
       id="path1652" /><path
       d="m 33.91,55.2 c 0,0 -1.64,0.59 -1.58,1.64 0.06,1.05 0.47,2.99 2.58,5.04 2.13,2.07 5.22,2.64 8.03,1.88 C 45.75,63 47.8,60.89 47.57,58.08 47.34,55.27 44.64,53.1 44.64,53.1 Z"
       fill="#cf701e"
       id="path1654" /><path
       d="m 21.78,70.73 c 0,0 -1.76,0.41 -1.58,1.58 0.18,1.17 2.17,4.86 5.33,4.45 3.16,-0.41 8.15,-4.04 8.15,-5.45 0,-1.41 -2.52,-3.28 -2.52,-3.28 z"
       fill="#cf701e"
       id="path1656" /><path
       d="m 43.34,85.38 c 0,0 -0.65,3.78 4.45,5.16 8.5,2.29 9.38,-2.87 9.38,-2.87 z"
       fill="#cf701e"
       id="path1658" /><path
       d="m 76.73,87.13 c 0,0 -2.28,2.28 0.31,4.07 2.59,1.79 5.54,2.4 8.32,2.09 2.78,-0.31 4.68,-2.53 4.68,-2.53 z"
       fill="#cf701e"
       id="path1660" /><path
       d="m 98.01,61.81 c 0,0 -4.3,2.17 -0.97,5.92 2.53,2.86 8.32,2.28 10.69,0.67 1.55,-1.05 2.01,-2.91 1.43,-3.85 -0.59,-0.94 -11.15,-2.74 -11.15,-2.74 z"
       fill="#cf701e"
       id="path1662" /><path
       d="m 81.37,36.97 c 0,0 -0.23,4.91 6.39,4.75 9.26,-0.23 8.09,-5.98 8.09,-5.98 z"
       fill="#cf701e"
       id="path1664" /><path
       d="m 85.65,30.82 c 0,0 -4.34,2.7 -4.81,3.81 -0.47,1.11 -1.47,4.63 3.57,4.4 5.04,-0.23 10.08,-0.41 11.78,-2.46 1.7,-2.05 1.29,-3.93 0.59,-5.45 -0.7,-1.52 -4.64,-7.27 -7.77,-7.2 -2.05,0.04 -3.36,6.9 -3.36,6.9 z"
       fill="#593329"
       id="path1666" /><path
       d="m 88.99,23.9 c 0,0 -2.75,-0.35 -5.16,3.93 -2.4,4.28 -3.02,6.83 -3.02,6.83 0,0 4.89,0.02 7.82,-0.33 2.93,-0.35 4.92,-2.17 4.92,-2.17 0,0 -2.39,-7.73 -4.56,-8.26 z"
       fill="#925849"
       id="path1668" /><path
       d="m 55.71,43.89 c 0,0 -2.4,-0.16 -2.58,0.77 -0.18,0.94 0.35,3.33 1.17,4.38 0.82,1.05 3.28,3.4 5.74,2.93 2.46,-0.47 3.92,-2.88 4.33,-3.71 0.37,-0.78 0.77,-1.62 0.07,-2.67 -0.71,-1.06 -8.73,-1.7 -8.73,-1.7 z"
       fill="#593329"
       id="path1670" /><path
       d="m 59.28,40.14 c -2.04,-0.22 -6.96,3.69 -6.08,5.03 0.98,1.47 1.15,0.54 3.85,1.89 2.23,1.11 3.2,2.14 4.6,1.96 1.4,-0.18 3.07,-2.49 2.78,-3.43 -0.29,-0.94 -2.39,-5.16 -5.15,-5.45 z"
       fill="#925849"
       id="path1672" /><path
       d="m 36.19,24.31 -4.8,3.32 c 0,0 -0.18,2.25 0.82,3.48 1,1.23 1.29,1.99 5.98,1.99 4.69,0 9.08,-0.64 9.9,-3.98 0.82,-3.34 -0.62,-5.48 -1.5,-6.71 -0.88,-1.23 -10.4,1.9 -10.4,1.9 z"
       fill="#593329"
       id="path1674" /><path
       d="m 36.25,19.1 c -1.08,0.46 -3.63,3.93 -4.22,5.45 -0.59,1.52 -0.72,3.14 -0.64,3.16 0.97,0.24 6.68,0.77 9.2,0.36 2.52,-0.41 4.57,-1.52 5.39,-2.99 0.65,-1.17 0.6,-2.72 0.6,-2.72 0,0 -1.71,-3.08 -4.06,-4.02 -2.34,-0.94 -5.86,0.58 -6.27,0.76 z"
       fill="#925949"
       id="path1676" /><path
       d="m 32.23,55.42 c 0,0 -0.4,0.61 0.36,1.78 0.76,1.17 2.25,2.57 4.48,3.22 2.23,0.64 3.81,1.52 5.27,1.35 1.47,-0.18 4.34,-1.35 4.45,-5.39 0.12,-4.04 -0.7,-5.92 -2.46,-7.68 -1.76,-1.76 -3.03,-1.46 -3.03,-1.46 z"
       fill="#593329"
       id="path1678" /><path
       d="m 32.74,51.68 c -0.62,1.04 -1.08,4.42 -0.32,5.18 0.76,0.76 5.33,0.81 6.53,0.68 1.21,-0.13 5.16,-1.99 5.22,-3.4 0.06,-1.41 -0.7,-3.28 -0.7,-3.98 0,-0.7 0.88,-2.34 -1.52,-2.93 -2.4,-0.59 -7.93,2.28 -9.21,4.45 z"
       fill="#925849"
       id="path1680" /><path
       d="m 24.82,66.86 c 0,0 -3.77,0.93 -4.01,2.22 -0.23,1.29 0.31,2.59 1.6,3.82 1.29,1.23 2.23,2.52 3.22,2.4 1,-0.12 3.63,-2.46 4.45,-3.22 0.82,-0.76 1.99,-2.11 1.88,-3.22 -0.11,-1.11 -0.59,-2.23 -1.64,-3.11 -1.04,-0.88 -5.5,1.11 -5.5,1.11 z"
       fill="#593329"
       id="path1682" /><path
       d="m 25.76,63.52 c -1.76,0.04 -3.11,2.17 -3.69,2.93 -0.59,0.76 -1.58,2.58 -1.17,2.87 0.41,0.29 2.11,0.47 2.93,1 0.82,0.53 2.05,1.35 2.99,0.59 0.94,-0.76 1.76,-2.87 2.23,-3.57 0.47,-0.7 1.29,-1.58 1.29,-1.58 0,0 -1.77,-2.3 -4.58,-2.24 z"
       fill="#925849"
       id="path1684" /><path
       d="m 47.27,77.64 c -0.35,0.41 -5.33,4.45 -5.33,4.45 0,0 0.18,3.52 1.29,4.34 1.11,0.82 4.57,1.99 6.8,2.46 2.23,0.47 6.21,1 7.21,0.59 1,-0.41 2.05,-2.58 2.11,-5.39 0.06,-2.81 -0.94,-4.91 -2.05,-6.2 -1.11,-1.29 -2,-1.77 -2,-1.77 z"
       fill="#593329"
       id="path1686" /><path
       d="m 53.89,82.91 c 0.65,-0.73 1.41,-6.8 1.41,-6.8 0,0 -4.51,-3.46 -6.39,-3.69 -1.88,-0.23 -4.1,-0.06 -4.75,0.64 -0.64,0.7 -3.16,3.22 -2.93,4.86 0.23,1.64 0.7,4.16 0.7,4.16 0,0 10.61,2.36 11.96,0.83 z"
       fill="#925849"
       id="path1688" /><path
       d="m 75.75,85.8 c 0,0 -0.57,3.8 3.61,4.52 4.18,0.71 7.65,1.66 9.46,1.28 1.81,-0.38 3.61,-2.8 3.8,-4.56 0.19,-1.76 0.29,-4.3 0,-4.99 -0.76,-1.83 -4.28,-6.84 -5.99,-7.37 -0.96,-0.29 -1.87,-0.13 -1.87,-0.13 z"
       fill="#593329"
       id="path1690" /><path
       d="m 78.46,79.14 c -1.87,2.07 -2.83,5.06 -2.73,6.64 0.1,1.49 7.19,0.84 8.03,0.33 0.84,-0.51 2.67,-2.79 2.73,-3.55 0.06,-0.76 -0.52,-3.14 -0.62,-4.61 -0.1,-1.47 -0.14,-3.47 -0.95,-3.42 -0.81,0.05 -3.8,1.67 -6.46,4.61 z"
       fill="#925849"
       id="path1692" /><path
       d="m 102.44,53.34 c 0,0 1.65,0.24 3.68,1.46 2.37,1.42 4.85,5.04 4.66,7.99 -0.19,2.95 -2.76,4.28 -5.89,4.33 -3.13,0.05 -6.19,-0.12 -6.76,-1.74 -0.57,-1.62 4.31,-12.04 4.31,-12.04 z"
       fill="#593329"
       id="path1694" /><path
       d="m 99.94,54.33 c -0.49,0.68 -1.76,2.76 -2.19,5.42 -0.43,2.66 -0.14,5.7 0.81,6.23 0.95,0.52 6.18,-3.99 6.46,-4.47 0.29,-0.48 -1.67,-7.75 -2.29,-8.08 -0.62,-0.33 -2.17,0.05 -2.79,0.9 z"
       fill="#925849"
       id="path1696" /></g><g
     id="flat"
     transform="translate(2.7745201,59.113238)"><path
       d="m 59,28 a 8,8 0 0 1 -7.948,-7.111 7.982,7.982 0 0 1 -11.761,-9 A 7.955,7.955 0 0 1 38,12 8,8 0 0 1 30,4 8.126,8.126 0 0 1 30.058,3.072 29,29 0 1 0 60.7,27.816 8.024,8.024 0 0 1 59,28 Z"
       style="fill:#a65c2e"
       id="path1825" /><path
       d="M 60.7,27.816 A 7.987,7.987 0 0 1 51.057,20.889 7.974,7.974 0 0 1 47.969,21.934 33.5,33.5 0 0 1 14.5,54 c -0.478,0 -0.952,-0.016 -1.424,-0.036 A 28.99,28.99 0 0 0 60.7,27.816 Z"
       style="fill:#964c1e"
       id="path1827" /><circle
       cx="29"
       cy="28"
       r="4"
       style="fill:#663318"
       id="circle1829" /><circle
       cx="22"
       cy="48"
       r="4"
       style="fill:#663318"
       id="circle1831" /><circle
       cx="44"
       cy="48"
       r="4"
       style="fill:#663318"
       id="circle1833" /><circle
       cx="13"
       cy="32"
       r="2"
       style="fill:#854219"
       id="circle1835" /><circle
       cx="37"
       cy="42"
       r="2"
       style="fill:#854219"
       id="circle1837" /><circle
       cx="48"
       cy="30"
       r="2"
       style="fill:#854219"
       id="circle1839" /><path
       d="m 18.584,13.315 -1.168,-1.623 a 25.056,25.056 0 0 1 3.125,-1.917 l 0.918,1.778 a 22.979,22.979 0 0 0 -2.875,1.762 z"
       style="fill:#c47747"
       id="path1841" /><path
       d="M 9.994,25.291 8.08,24.709 a 25,25 0 0 1 7.253,-11.343 l 1.334,1.49 A 23,23 0 0 0 9.994,25.291 Z"
       style="fill:#c47747"
       id="path1843" /></g></svg>
